<svg xmlns="http://www.w3.org/2000/svg" width="135" height="27" viewBox="0 0 135 27" fill="none">
    <path d="M87.2742 0.625H70.1785C69.8047 0.625243 69.4465 0.7739 69.1822 1.03834C68.9178 1.30279 68.7691 1.66142 68.7686 2.03553V11.9199C68.7686 12.2946 68.9169 12.6539 69.1813 12.9191C69.4457 13.1843 69.8043 13.3335 70.1785 13.3341H87.2742C87.6483 13.3337 88.0072 13.1844 88.2716 12.9192C88.5358 12.654 88.6841 12.2946 88.6839 11.9199V2.03553C88.6836 1.66139 88.5349 1.30266 88.2706 1.03818C88.0062 0.773709 87.648 0.625105 87.2742 0.625ZM72.5573 10.659V3.29841C72.5573 3.29007 72.5588 3.28178 72.5618 3.27406C72.565 3.26632 72.5695 3.25926 72.5755 3.25333C72.5812 3.2474 72.5881 3.24271 72.5958 3.2395C72.6034 3.23631 72.6118 3.23467 72.62 3.23471H84.8334C84.8418 3.23465 84.85 3.23626 84.8578 3.23943C84.8655 3.24262 84.8726 3.24732 84.8785 3.25324C84.8843 3.25917 84.8892 3.2662 84.8923 3.27395C84.8955 3.28169 84.897 3.29001 84.897 3.29841V10.659C84.8972 10.676 84.8905 10.6925 84.8787 10.7048C84.8668 10.7171 84.8505 10.7241 84.8334 10.7244H72.62C72.6116 10.7242 72.6034 10.7224 72.5956 10.719C72.588 10.7156 72.581 10.7108 72.5753 10.7047C72.5695 10.6986 72.5648 10.6914 72.5618 10.6836C72.5587 10.6757 72.5572 10.6674 72.5573 10.659Z" fill="white"/>
    <path d="M19.6278 0.625H16.096C16.062 0.625045 16.0293 0.638522 16.0052 0.662527C15.981 0.686531 15.9673 0.719116 15.9671 0.753187V10.659C15.9674 10.6674 15.966 10.6759 15.963 10.6838C15.96 10.6917 15.9555 10.6989 15.9496 10.705C15.9438 10.7111 15.9368 10.716 15.929 10.7193C15.9212 10.7227 15.9129 10.7244 15.9044 10.7244H4.27626C4.25922 10.7239 4.24304 10.7168 4.23118 10.7046C4.21929 10.6924 4.21265 10.676 4.21265 10.659V8.56027C4.21224 8.52648 4.1986 8.4942 4.17464 8.47037C4.1507 8.44656 4.11836 8.43313 4.08461 8.43292H0.552847C0.519044 8.43296 0.486625 8.44638 0.462643 8.47022C0.438662 8.49407 0.42506 8.52642 0.424805 8.56027V11.9199C0.424525 12.2946 0.57287 12.654 0.837221 12.9192C1.10157 13.1844 1.46029 13.3337 1.83451 13.3341H18.3461C18.7203 13.3335 19.0789 13.1842 19.3432 12.9191C19.6076 12.6539 19.756 12.2946 19.7558 11.9199V0.753187C19.7558 0.736341 19.7526 0.719665 19.7463 0.704094C19.7397 0.688522 19.7304 0.67436 19.7185 0.662447C19.7065 0.650535 19.6923 0.641094 19.6768 0.634666C19.6614 0.628238 19.6446 0.624959 19.6278 0.625Z" fill="white"/>
    <path d="M65.2666 0.625H45.8516C45.8177 0.625059 45.7852 0.63858 45.7611 0.662606C45.7373 0.686631 45.7236 0.719198 45.7236 0.753186V3.10646C45.7238 3.14042 45.7374 3.17291 45.7613 3.19692C45.7854 3.22092 45.8179 3.2345 45.8516 3.23473H53.6007C53.6091 3.2345 53.6175 3.23598 53.6253 3.23909C53.6332 3.24219 53.6405 3.24685 53.6464 3.25279C53.6524 3.25874 53.6572 3.26585 53.6604 3.27369C53.6636 3.28152 53.6653 3.28992 53.6651 3.29841V13.206C53.6655 13.2401 53.6791 13.2726 53.7033 13.2966C53.7274 13.3206 53.7601 13.3341 53.7942 13.3342H57.3233C57.3574 13.3342 57.3903 13.3208 57.4147 13.2968C57.4391 13.2728 57.4533 13.2402 57.4539 13.206V3.29841C57.4537 3.29003 57.455 3.28169 57.458 3.27389C57.4612 3.26609 57.4656 3.25896 57.4716 3.25301C57.4774 3.24704 57.4845 3.24236 57.4921 3.23922C57.5 3.23607 57.5082 3.23454 57.5166 3.23473H65.2666C65.3004 3.23431 65.3328 3.22067 65.3567 3.1967C65.3806 3.17274 65.3942 3.14035 65.3946 3.10646V0.753186C65.3944 0.71926 65.3808 0.68678 65.3569 0.66279C65.3328 0.6388 65.3005 0.625236 65.2666 0.625Z" fill="white"/>
    <path d="M111.167 0.625004H107.637C107.603 0.624889 107.571 0.638333 107.547 0.662372C107.522 0.686411 107.509 0.719071 107.508 0.753191V10.659C107.509 10.6674 107.507 10.6757 107.504 10.6836C107.501 10.6914 107.497 10.6986 107.491 10.7047C107.485 10.7108 107.478 10.7156 107.47 10.719C107.463 10.7224 107.454 10.7242 107.446 10.7244H95.9107C95.9023 10.7244 95.8939 10.7226 95.886 10.7192C95.8782 10.7159 95.8713 10.7111 95.8653 10.705C95.8594 10.6989 95.8547 10.6917 95.8517 10.6838C95.8485 10.6759 95.847 10.6674 95.8472 10.659V0.753191C95.8472 0.736273 95.8439 0.719508 95.8374 0.703886C95.8308 0.688265 95.8213 0.674107 95.8094 0.662187C95.7974 0.650268 95.783 0.64084 95.7676 0.634459C95.7519 0.628077 95.7351 0.624865 95.7181 0.625004H92.1874C92.1706 0.625061 92.154 0.628407 92.1385 0.634881C92.1232 0.641355 92.109 0.650837 92.0973 0.662742C92.0855 0.674647 92.0762 0.688761 92.0698 0.704282C92.0635 0.719804 92.0601 0.736417 92.0603 0.753191V11.92C92.0598 12.2945 92.2079 12.6539 92.4721 12.9192C92.7363 13.1844 93.095 13.3337 93.4691 13.3342H109.887C110.261 13.3337 110.62 13.1845 110.884 12.9193C111.149 12.6542 111.297 12.2947 111.297 11.92V0.753191C111.297 0.718972 111.283 0.686286 111.259 0.662267C111.234 0.638247 111.202 0.624852 111.167 0.625004Z" fill="white"/>
    <path d="M134.344 13.1007L127.134 8.15068H132.75C133.123 8.15075 133.481 8.00239 133.745 7.73823C134.009 7.47407 134.157 7.11575 134.158 6.74206V2.03553C134.158 1.85035 134.121 1.66694 134.051 1.49582C133.98 1.3247 133.876 1.1692 133.746 1.03821C133.615 0.907226 133.46 0.803309 133.289 0.732406C133.118 0.661502 132.935 0.625019 132.75 0.625003H114.801C114.784 0.62489 114.767 0.628134 114.752 0.634536C114.736 0.640939 114.722 0.650365 114.71 0.662291C114.698 0.674218 114.689 0.688386 114.682 0.70399C114.676 0.719594 114.673 0.736323 114.673 0.753189V13.206C114.673 13.24 114.686 13.2725 114.71 13.2965C114.734 13.3205 114.767 13.3341 114.801 13.3342H118.332C118.365 13.3338 118.398 13.3201 118.422 13.2962C118.446 13.2722 118.459 13.2399 118.46 13.206V6.00863L129.053 13.2779C129.107 13.3144 129.17 13.334 129.236 13.3342H134.272C134.299 13.3341 134.326 13.3252 134.347 13.309C134.369 13.2928 134.385 13.27 134.393 13.2439C134.401 13.2179 134.401 13.1899 134.392 13.1642C134.383 13.1384 134.366 13.1162 134.344 13.1007ZM118.523 3.23473H130.308C130.316 3.23465 130.325 3.23624 130.333 3.23941C130.34 3.24256 130.347 3.24725 130.353 3.25316C130.359 3.25908 130.364 3.26613 130.367 3.27389C130.371 3.28165 130.372 3.28998 130.372 3.29841V5.47917C130.372 5.48761 130.371 5.49593 130.367 5.50369C130.364 5.51145 130.359 5.51845 130.353 5.52437C130.347 5.53028 130.34 5.53495 130.333 5.5381C130.325 5.54125 130.316 5.54284 130.308 5.54275H118.523C118.515 5.54282 118.507 5.54122 118.499 5.53804C118.491 5.53487 118.484 5.53021 118.478 5.52429C118.472 5.51838 118.468 5.51132 118.464 5.50358C118.461 5.49584 118.46 5.48755 118.46 5.47917V3.29841C118.46 3.29003 118.461 3.28173 118.464 3.27398C118.468 3.26622 118.472 3.25921 118.478 3.25327C118.484 3.24734 118.491 3.24264 118.499 3.23946C118.507 3.23627 118.515 3.23467 118.523 3.23473Z" fill="white"/>
    <path d="M42.2206 3.23473C42.2546 3.23465 42.2872 3.2211 42.3111 3.19707C42.3352 3.17304 42.3486 3.14046 42.3488 3.10646V0.753187C42.3488 0.736337 42.3455 0.71964 42.3391 0.704067C42.3326 0.688495 42.3232 0.674359 42.3113 0.662448C42.2994 0.650537 42.2852 0.641093 42.2697 0.634666C42.2542 0.628239 42.2374 0.62496 42.2206 0.625001H24.5416C24.3565 0.624812 24.173 0.661157 24.0019 0.731955C23.8308 0.802752 23.6754 0.906612 23.5444 1.0376C23.4134 1.1686 23.3095 1.32414 23.2386 1.49537C23.1675 1.6666 23.1311 1.85016 23.1311 2.03553V11.92C23.1307 12.2948 23.2793 12.6543 23.5439 12.9195C23.8083 13.1847 24.1673 13.3339 24.5416 13.3341H42.2206C42.2546 13.3339 42.2871 13.3203 42.3109 13.2964C42.335 13.2724 42.3484 13.2399 42.3488 13.206V10.8535C42.349 10.8366 42.3456 10.8198 42.3393 10.8042C42.333 10.7885 42.3234 10.7743 42.3117 10.7623C42.2997 10.7503 42.2856 10.7407 42.2699 10.7342C42.2542 10.7277 42.2376 10.7244 42.2206 10.7244H26.9833C26.9748 10.7245 26.9662 10.7229 26.9582 10.7197C26.9499 10.7165 26.9427 10.7117 26.9365 10.7056C26.9303 10.6995 26.9255 10.6922 26.9221 10.6842C26.9188 10.6762 26.9171 10.6676 26.9171 10.659V8.34812C26.9171 8.33942 26.9188 8.33082 26.9221 8.32281C26.9255 8.31479 26.9303 8.30749 26.9365 8.30139C26.9427 8.29529 26.9499 8.2905 26.958 8.28727C26.9662 8.28402 26.9748 8.2824 26.9833 8.28253H41.2449C41.2617 8.28275 41.2785 8.27962 41.2944 8.27327C41.31 8.26691 41.3242 8.25751 41.3364 8.24556C41.3483 8.23362 41.3578 8.21942 41.3643 8.20377C41.3707 8.18809 41.374 8.1713 41.374 8.15436V5.80385C41.374 5.78685 41.3709 5.77 41.3643 5.75427C41.3578 5.73856 41.3483 5.72427 41.3364 5.71227C41.3244 5.70025 41.31 5.69073 41.2944 5.6843C41.2787 5.67784 41.2619 5.67459 41.2449 5.67471H26.9833C26.9662 5.67508 26.9496 5.66857 26.9371 5.65662C26.9246 5.64468 26.9175 5.62828 26.9171 5.61104V3.29841C26.9171 3.28981 26.9188 3.28132 26.9221 3.27342C26.9255 3.26553 26.9305 3.2584 26.9367 3.25245C26.9428 3.2465 26.9503 3.24187 26.9582 3.23883C26.9662 3.23577 26.9748 3.23437 26.9833 3.23471L42.2206 3.23473Z" fill="white"/>
    <path d="M20.9293 19.0646C21.264 19.0611 21.5956 19.1283 21.9027 19.2616C22.4896 19.5154 22.9566 19.9849 23.208 20.5734C23.339 20.8738 23.416 21.1949 23.4356 21.522C23.4425 21.6674 23.4476 21.8454 23.4513 22.0561C23.4545 22.2671 23.4561 22.483 23.4563 22.7043C23.4563 22.9256 23.4547 23.14 23.4513 23.3471C23.4479 23.5544 23.4427 23.7307 23.4356 23.8759C23.4164 24.2015 23.3393 24.5212 23.208 24.8197C22.9542 25.4052 22.4877 25.8723 21.9027 26.1261C21.5956 26.2597 21.264 26.3266 20.9293 26.3231H16.4011C16.3456 26.3231 16.3181 26.2919 16.3181 26.2298V19.1579C16.3181 19.0958 16.3456 19.0645 16.4011 19.0645L20.9293 19.0646ZM20.7841 25.0789C20.9369 25.0824 21.0877 25.0427 21.2193 24.9647C21.3445 24.888 21.4534 24.7876 21.5402 24.6691C21.6309 24.5467 21.7009 24.4099 21.7475 24.2648C21.7945 24.1217 21.8257 23.9739 21.8406 23.824C21.8475 23.686 21.8527 23.5184 21.8563 23.3214C21.8595 23.1243 21.8611 22.9185 21.8613 22.7043C21.8613 22.4899 21.8596 22.2826 21.8563 22.082C21.8526 21.8818 21.8473 21.709 21.8406 21.5636C21.8324 21.4121 21.8046 21.2621 21.7578 21.1177C21.7124 20.9719 21.6424 20.8352 21.5506 20.7133C21.4615 20.5965 21.3506 20.498 21.2243 20.423C21.0907 20.3455 20.9384 20.3062 20.7841 20.309H17.9131V25.0789H20.7841Z" fill="white"/>
    <path d="M28.8192 21.1376C28.8319 21.1358 28.8447 21.1369 28.8571 21.141C28.8692 21.1449 28.8802 21.1518 28.8892 21.1609C28.8983 21.1699 28.905 21.1809 28.9091 21.1932C28.9132 21.2054 28.9143 21.2182 28.9125 21.2309V22.1745C28.9143 22.1872 28.9132 22.2001 28.9091 22.2122C28.905 22.2243 28.8983 22.2354 28.8892 22.2445C28.8802 22.2536 28.8692 22.2604 28.8571 22.2645C28.8447 22.2686 28.8319 22.2697 28.8192 22.2678H26.748C26.5789 22.2637 26.4103 22.2811 26.2457 22.3197C26.1373 22.3445 26.0361 22.3941 25.9503 22.4649C25.8824 22.5255 25.8337 22.6048 25.8105 22.6929C25.7853 22.7912 25.7732 22.8924 25.7743 22.9937V26.2288C25.7762 26.2415 25.7751 26.2544 25.771 26.2667C25.7669 26.2788 25.7602 26.2899 25.751 26.2988C25.7421 26.308 25.731 26.3147 25.7189 26.3188C25.7066 26.3229 25.6937 26.324 25.681 26.3223H24.4486C24.4359 26.324 24.423 26.3229 24.4109 26.3188C24.3988 26.3147 24.3878 26.308 24.3786 26.2988C24.3697 26.2899 24.3628 26.2788 24.3588 26.2667C24.3547 26.2544 24.3536 26.2415 24.3553 26.2288V22.8485C24.3389 22.6063 24.3807 22.3637 24.4769 22.1409C24.5734 21.9181 24.7216 21.7217 24.9093 21.5679C25.4262 21.2406 26.0348 21.0897 26.6442 21.1376H28.8192Z" fill="white"/>
    <path d="M31.1369 19.0645C31.1991 19.0645 31.23 19.0921 31.2302 19.1475V20.3296C31.2319 20.3423 31.2308 20.3552 31.2267 20.3673C31.2228 20.3794 31.2159 20.3906 31.2069 20.3996C31.1978 20.4087 31.1868 20.4154 31.1746 20.4195C31.1625 20.4236 31.1496 20.4248 31.1369 20.4229H29.9045C29.8918 20.4248 29.8789 20.4236 29.8666 20.4195C29.8545 20.4154 29.8435 20.4087 29.8345 20.3996C29.8254 20.3906 29.8186 20.3794 29.8145 20.3673C29.8104 20.3552 29.8093 20.3423 29.8112 20.3296V19.1475C29.8112 19.0921 29.8422 19.0645 29.9045 19.0645H31.1369ZM31.1369 21.1385C31.1991 21.1385 31.23 21.1661 31.2302 21.2211V26.2297C31.2319 26.2424 31.2308 26.2553 31.2267 26.2674C31.2228 26.2795 31.2159 26.2905 31.2069 26.2997C31.1978 26.3086 31.1868 26.3155 31.1746 26.3196C31.1625 26.3236 31.1496 26.3249 31.1369 26.323H29.9045C29.8918 26.3249 29.8789 26.3236 29.8666 26.3196C29.8545 26.3155 29.8435 26.3086 29.8345 26.2997C29.8254 26.2905 29.8186 26.2795 29.8145 26.2674C29.8104 26.2553 29.8093 26.2424 29.8112 26.2297V21.2211C29.8112 21.1661 29.8422 21.1385 29.9045 21.1385H31.1369Z" fill="white"/>
    <path d="M38.4155 21.1081C38.5191 21.1081 38.5467 21.1531 38.4982 21.243C38.1737 21.9827 37.8802 22.6497 37.6178 23.2442C37.5074 23.4999 37.3967 23.7523 37.2865 24.0012C37.176 24.25 37.076 24.4744 36.9862 24.6752C36.8963 24.8758 36.822 25.0451 36.7634 25.1833C36.7047 25.3216 36.6685 25.4046 36.6546 25.4322C36.575 25.6183 36.4705 25.7926 36.344 25.9506C36.2374 26.0792 36.0977 26.176 35.94 26.2305C35.8493 26.2689 35.7532 26.2936 35.6553 26.3033C35.5401 26.3171 35.4242 26.324 35.3082 26.3238C35.1974 26.3243 35.0867 26.3174 34.9768 26.3033C34.8839 26.2923 34.7932 26.2678 34.7075 26.2305C34.5504 26.1695 34.4101 26.0717 34.2985 25.9454C34.1679 25.7912 34.0615 25.6181 33.9824 25.4322C33.9684 25.4044 33.9307 25.3216 33.8686 25.1833C33.8067 25.0449 33.732 24.8758 33.646 24.6752C33.5598 24.4746 33.4613 24.2498 33.3508 24.0012C33.2405 23.7525 33.1297 23.4999 33.0192 23.2442C32.7569 22.6497 32.4634 21.9827 32.1389 21.243C32.1113 21.1531 32.1424 21.1081 32.2322 21.1081H33.3818C33.4424 21.1038 33.5029 21.1199 33.5536 21.1536C33.6042 21.1874 33.6423 21.237 33.6615 21.2947L35.2151 24.8098C35.2184 24.8236 35.2248 24.8363 35.2337 24.8471C35.2427 24.8577 35.2541 24.8663 35.2669 24.8721C35.2832 24.8795 35.3009 24.8831 35.3188 24.8825C35.3367 24.8848 35.355 24.8812 35.3707 24.8721C35.3852 24.8676 35.3987 24.8598 35.4095 24.8488C35.4203 24.8379 35.4284 24.8245 35.4326 24.8098L36.976 21.2947C36.9984 21.237 37.0385 21.1878 37.0905 21.1542C37.1428 21.1206 37.2042 21.1046 37.2659 21.1081H38.4155Z" fill="white"/>
    <path d="M43.6455 21.1388C43.8849 21.1371 44.122 21.1839 44.3428 21.2765C44.5635 21.3692 44.7632 21.5056 44.9298 21.6779C45.0895 21.8452 45.2175 22.0402 45.3078 22.2533C45.4004 22.4679 45.448 22.6991 45.4476 22.9327V23.814C45.4405 23.9476 45.3832 24.0735 45.2871 24.1667C45.2375 24.2232 45.1761 24.2683 45.1071 24.2988C45.0382 24.3292 44.9636 24.3441 44.8882 24.3428H40.8596V24.5398C40.8604 24.7016 40.915 24.8585 41.0149 24.9858C41.0632 25.0526 41.1272 25.1065 41.2013 25.1425C41.2754 25.1787 41.3571 25.1961 41.4396 25.1931H45.0748C45.1369 25.1931 45.1681 25.2209 45.1681 25.2761V26.23C45.1699 26.2427 45.1688 26.2556 45.1647 26.2677C45.1606 26.28 45.1539 26.291 45.1448 26.3C45.1358 26.3091 45.1248 26.3158 45.1127 26.3199C45.1004 26.3241 45.0875 26.3252 45.0748 26.3233H41.253C41.0033 26.3263 40.7564 26.2694 40.5333 26.1576C40.32 26.0505 40.13 25.9025 39.9739 25.7219C39.8179 25.5411 39.6919 25.3364 39.601 25.1155C39.5091 24.8962 39.4548 24.6632 39.4406 24.4258C39.4335 24.3292 39.4283 24.2202 39.4249 24.0991C39.4215 23.9784 39.4197 23.8556 39.4197 23.731C39.4197 23.6067 39.4215 23.4858 39.4249 23.368C39.4284 23.2508 39.4337 23.1402 39.4406 23.0365C39.448 22.7976 39.499 22.5621 39.5906 22.3416C39.6813 22.1177 39.8091 21.9109 39.9686 21.7297C40.1269 21.5506 40.3187 21.4045 40.5333 21.2994C40.7574 21.1908 41.0039 21.1358 41.253 21.1388H43.6455ZM43.8629 23.2124C43.8845 23.212 43.9058 23.2072 43.9254 23.1982C43.945 23.1895 43.9625 23.1766 43.9771 23.1605C43.9937 23.1445 44.0069 23.1251 44.0159 23.1038C44.0248 23.0824 44.0291 23.0594 44.0289 23.0363V22.8599C44.0452 22.7816 44.0422 22.7004 44.0203 22.6235C43.9985 22.5466 43.9584 22.4761 43.9035 22.4181C43.8485 22.36 43.7804 22.3162 43.7048 22.2903C43.6292 22.2641 43.5486 22.2569 43.4695 22.269H41.4394C41.3604 22.2649 41.2817 22.2781 41.2084 22.3076C41.135 22.3371 41.069 22.3824 41.0149 22.4401C40.9111 22.5547 40.8553 22.7051 40.8594 22.8599V23.2124H43.8629Z" fill="white"/>
    <path d="M58.6313 19.065C58.6486 19.0639 58.6658 19.0682 58.6805 19.0773C58.6951 19.0863 58.7067 19.0997 58.7136 19.1157C58.7203 19.1316 58.7221 19.1492 58.7184 19.1661C58.7149 19.1831 58.7061 19.1984 58.6934 19.2102L54.7783 23.5134V26.2303C54.7802 26.2429 54.779 26.2558 54.7749 26.2679C54.7708 26.2801 54.7641 26.2913 54.755 26.3002C54.746 26.3094 54.735 26.3161 54.7229 26.3202C54.7106 26.3243 54.6977 26.3254 54.685 26.3235H53.2766C53.2639 26.3254 53.251 26.3241 53.2389 26.3202C53.2268 26.3161 53.2157 26.3092 53.2066 26.3002C53.1976 26.2911 53.1907 26.2801 53.1868 26.2679C53.1827 26.2558 53.1816 26.2429 53.1833 26.2303V23.4825L49.2788 19.2102C49.2657 19.1989 49.257 19.1834 49.2542 19.1664C49.2514 19.1493 49.2545 19.1318 49.2633 19.1169C49.2695 19.1014 49.2803 19.0882 49.2941 19.0789C49.3079 19.0696 49.3243 19.0648 49.3409 19.065H50.9152C50.9794 19.0618 51.0434 19.0732 51.1026 19.0984C51.1617 19.1235 51.2145 19.1617 51.2569 19.2101L53.7632 21.9373C53.824 21.997 53.906 22.0306 53.9912 22.0306C54.0763 22.0306 54.1582 21.997 54.2191 21.9373L56.7151 19.2101C56.7575 19.1617 56.8103 19.1235 56.8694 19.0984C56.9286 19.0732 56.9928 19.0618 57.057 19.065L58.6313 19.065Z" fill="white"/>
    <path d="M61.9752 21.0859C62.3273 21.0859 62.6708 21.0928 63.0056 21.1066C63.3101 21.1152 63.6118 21.1677 63.9014 21.2621C64.1389 21.3373 64.3565 21.4649 64.5384 21.6355C64.7041 21.7998 64.8331 21.9978 64.9165 22.2161H64.906C65.0046 22.444 65.0691 22.6851 65.0977 22.9317C65.1296 23.2001 65.1451 23.4702 65.1443 23.7406C65.1447 24.0039 65.1292 24.267 65.0977 24.5286C65.0691 24.7751 65.0046 25.0162 64.906 25.244H64.9165C64.8357 25.4651 64.7066 25.6653 64.5384 25.8299C64.3543 25.9986 64.1374 26.1273 63.9014 26.2083C63.6183 26.2912 63.3261 26.3382 63.0315 26.3483C62.693 26.3654 62.3409 26.374 61.9752 26.3742C61.616 26.3742 61.2673 26.3656 60.929 26.3483C60.6343 26.3382 60.3421 26.2912 60.0591 26.2083C59.8256 26.1372 59.6118 26.0133 59.434 25.846C59.2561 25.6788 59.1192 25.4728 59.0337 25.244C58.9408 25.0182 58.8783 24.7811 58.8473 24.5389C58.8122 24.2743 58.7949 24.0074 58.7954 23.7406C58.7945 23.4667 58.8117 23.193 58.8473 22.9215C58.8783 22.6791 58.9408 22.4421 59.0337 22.2161C59.1211 21.9988 59.2515 21.8012 59.417 21.6355C59.5976 21.4608 59.818 21.3326 60.0591 21.2621C60.3513 21.1802 60.6517 21.1315 60.9549 21.1169C61.2967 21.0964 61.6367 21.0859 61.9752 21.0859ZM61.9752 25.244C62.2166 25.244 62.448 25.2405 62.669 25.2336C62.8516 25.233 63.0332 25.205 63.2077 25.1505C63.3213 25.1143 63.422 25.0458 63.4976 24.9535C63.5637 24.8628 63.6127 24.7609 63.6424 24.6527C63.679 24.5172 63.7016 24.3782 63.71 24.2381C63.7202 24.086 63.7255 23.9201 63.7255 23.7404C63.7255 23.5536 63.7202 23.3825 63.71 23.2271C63.7018 23.0851 63.6792 22.9444 63.6424 22.8071C63.6111 22.6962 63.5622 22.5912 63.4976 22.496C63.4269 22.4007 63.3237 22.3343 63.2077 22.3094C63.0263 22.2637 62.8404 22.2376 62.6537 22.2316C62.4359 22.2212 62.2097 22.216 61.9752 22.2161C61.7334 22.2161 61.5055 22.2197 61.2915 22.2266C61.1057 22.2292 60.9209 22.257 60.7427 22.3096C60.6291 22.3371 60.5285 22.4029 60.4578 22.496C60.3901 22.5903 60.3391 22.6955 60.3076 22.8071C60.2722 22.9502 60.2479 23.0959 60.2352 23.2428C60.221 23.3949 60.2141 23.5607 60.2143 23.7406C60.2143 23.9063 60.2212 24.0653 60.2352 24.2174C60.2479 24.3642 60.2722 24.5098 60.3076 24.6529C60.338 24.7628 60.3908 24.8652 60.4629 24.9537C60.5384 25.0414 60.6345 25.1091 60.7427 25.1507C60.917 25.2052 61.0986 25.2332 61.2811 25.2337C61.502 25.2405 61.7334 25.244 61.9752 25.244Z" fill="white"/>
    <path d="M71.7087 21.1396C71.7214 21.1377 71.7343 21.1388 71.7464 21.1429C71.7586 21.147 71.7696 21.1537 71.7787 21.1629C71.7877 21.1718 71.7946 21.183 71.7985 21.1952C71.8026 21.2073 71.8037 21.2202 71.802 21.2328V23.6798C71.8026 23.9588 71.7871 24.2376 71.7552 24.5147C71.7291 24.7612 71.6716 25.0034 71.5843 25.2355C71.5001 25.4547 71.3714 25.6542 71.2062 25.8212C71.0239 25.9953 70.8017 26.1216 70.5589 26.1892C70.3231 26.2642 70.0801 26.3146 69.834 26.3397C69.5922 26.3638 69.2918 26.3759 68.933 26.3759C68.5739 26.3759 68.2719 26.3638 68.0267 26.3397C67.782 26.3157 67.5408 26.2653 67.307 26.1892C67.0659 26.1188 66.8453 25.9908 66.6647 25.816C66.4992 25.6505 66.3688 25.4529 66.2816 25.2355C66.1883 25.0007 66.1256 24.755 66.0952 24.5044C66.06 24.2309 66.0428 23.9556 66.0434 23.6798V21.2328C66.0415 21.2202 66.0426 21.2073 66.0467 21.1952C66.0506 21.183 66.0575 21.1718 66.0665 21.1629C66.0756 21.1537 66.0866 21.147 66.0988 21.1429C66.1109 21.1388 66.1238 21.1377 66.1365 21.1396H67.3691C67.3818 21.1377 67.3947 21.1388 67.4068 21.1429C67.4189 21.1468 67.4299 21.1537 67.4389 21.1627C67.448 21.1718 67.4548 21.1828 67.4589 21.195C67.463 21.2071 67.4641 21.22 67.4624 21.2327V23.6737C67.4624 23.8459 67.4693 24.0131 67.4829 24.1753C67.4951 24.327 67.5193 24.4773 67.5553 24.6253C67.5859 24.7348 67.6389 24.8369 67.7109 24.9252C67.7865 25.0127 67.8826 25.0802 67.9905 25.1217C68.1203 25.1732 68.256 25.2079 68.3944 25.2252C68.7529 25.2526 69.113 25.2526 69.4717 25.2252C69.6101 25.2079 69.7458 25.1732 69.8756 25.1217C69.9853 25.0838 70.0822 25.0157 70.1551 24.9252C70.221 24.8347 70.2703 24.7332 70.3001 24.6253C70.3375 24.4831 70.36 24.3376 70.3675 24.1909C70.3779 24.0252 70.383 23.853 70.3832 23.6739V21.2327C70.3813 21.22 70.3824 21.2071 70.3865 21.195C70.3906 21.1828 70.3973 21.1716 70.4065 21.1627C70.4154 21.1537 70.4265 21.1468 70.4386 21.1427C70.4507 21.1388 70.4638 21.1377 70.4763 21.1396H71.7087Z" fill="white"/>
    <path d="M77.1647 21.1376C77.1773 21.1358 77.1902 21.1369 77.2023 21.141C77.2145 21.1449 77.2257 21.1518 77.2346 21.1609C77.2438 21.1699 77.2505 21.1809 77.2546 21.1932C77.2585 21.2054 77.2598 21.2182 77.2579 21.2309V22.1745C77.2596 22.1872 77.2585 22.2001 77.2546 22.2122C77.2505 22.2243 77.2436 22.2354 77.2346 22.2445C77.2255 22.2536 77.2145 22.2604 77.2023 22.2645C77.1902 22.2684 77.1773 22.2697 77.1647 22.2678H75.0933C74.9244 22.2637 74.7557 22.2811 74.5911 22.3197C74.4827 22.3445 74.3816 22.3941 74.2958 22.4649C74.2277 22.5255 74.1791 22.6048 74.156 22.6929C74.1308 22.7912 74.1185 22.8924 74.1198 22.9937V26.2288C74.1217 26.2415 74.1204 26.2544 74.1165 26.2667C74.1123 26.2788 74.1054 26.2899 74.0965 26.2988C74.0873 26.308 74.0763 26.3147 74.0642 26.3188C74.0521 26.3229 74.0392 26.324 74.0265 26.3223H72.7941C72.7814 26.324 72.7685 26.3229 72.7564 26.3188C72.7442 26.3147 72.7332 26.308 72.7241 26.2988C72.7151 26.2899 72.7082 26.2788 72.7041 26.2667C72.7002 26.2544 72.6989 26.2415 72.7008 26.2288V22.8485C72.6843 22.6063 72.726 22.3637 72.8224 22.1409C72.9189 21.9181 73.067 21.7217 73.2548 21.5679C73.7714 21.2406 74.3801 21.0897 74.9897 21.1376H77.1647Z" fill="white"/>
    <path d="M93.5801 21.1395C93.5928 21.1377 93.6057 21.1388 93.6178 21.1429C93.6299 21.147 93.641 21.1537 93.6501 21.1629C93.6591 21.1718 93.666 21.183 93.6699 21.1952C93.674 21.2073 93.6751 21.2202 93.6734 21.2328V23.6798C93.674 23.9588 93.6585 24.2376 93.6266 24.5147C93.6005 24.7612 93.543 25.0034 93.4557 25.2353C93.3715 25.4547 93.2428 25.6542 93.0776 25.8212C92.8953 25.9953 92.6731 26.1216 92.4303 26.1892C92.1945 26.2642 91.9515 26.3145 91.7054 26.3397C91.4636 26.3638 91.1632 26.3759 90.8044 26.3759C90.4453 26.3759 90.1433 26.3638 89.8981 26.3397C89.6534 26.3157 89.4122 26.2653 89.1784 26.1892C88.9371 26.1188 88.7167 25.9908 88.5361 25.816C88.3706 25.6505 88.2402 25.4529 88.153 25.2355C88.0597 25.0007 87.9969 24.755 87.9664 24.5044C87.9314 24.2309 87.9142 23.9554 87.9146 23.6798V21.2328C87.9129 21.2202 87.914 21.2073 87.9181 21.1952C87.922 21.183 87.9289 21.1718 87.9379 21.1629C87.947 21.1537 87.958 21.147 87.9702 21.1429C87.9823 21.1388 87.9952 21.1377 88.0079 21.1395H89.2405C89.253 21.1377 89.2661 21.1388 89.2782 21.1429C89.2903 21.147 89.3013 21.1537 89.3103 21.1627C89.3194 21.1718 89.3262 21.1828 89.3303 21.195C89.3344 21.2071 89.3355 21.22 89.3336 21.2327V23.6737C89.3336 23.8459 89.3405 24.0131 89.3543 24.1752C89.3665 24.3269 89.3907 24.4773 89.4267 24.6251C89.4573 24.7348 89.5103 24.8369 89.5824 24.9252C89.6579 25.0127 89.754 25.0802 89.8619 25.1217C89.9915 25.1732 90.1274 25.2079 90.2658 25.2252C90.6243 25.2526 90.9844 25.2526 91.3429 25.2252C91.4813 25.2079 91.6172 25.1732 91.7468 25.1217C91.8567 25.0838 91.9536 25.0157 92.0264 24.9252C92.0924 24.8347 92.1415 24.7332 92.1715 24.6251C92.2088 24.4831 92.2314 24.3376 92.2389 24.1909C92.2492 24.0252 92.2544 23.8528 92.2544 23.6739V21.2327C92.2527 21.22 92.2538 21.2071 92.2579 21.195C92.2618 21.1828 92.2687 21.1716 92.2777 21.1627C92.2868 21.1537 92.2979 21.1468 92.31 21.1429C92.3221 21.1388 92.335 21.1377 92.3477 21.1395H93.5801Z" fill="white"/>
    <path d="M96.892 19.7704C96.9047 19.7685 96.9176 19.7698 96.9297 19.7737C96.9419 19.7778 96.9531 19.7847 96.962 19.7937C96.9712 19.8028 96.9779 19.8138 96.982 19.826C96.9859 19.8381 96.9872 19.8512 96.9853 19.8639V21.1392H99.3055C99.3182 21.1375 99.331 21.1387 99.3431 21.1428C99.3553 21.1467 99.3663 21.1536 99.3752 21.1625C99.3844 21.1717 99.3911 21.1827 99.3952 21.1948C99.3991 21.2071 99.4002 21.22 99.3986 21.2327V22.1761C99.4002 22.1888 99.3991 22.2017 99.3952 22.2138C99.3911 22.2259 99.3844 22.2371 99.3752 22.2461C99.3663 22.2552 99.3553 22.262 99.3431 22.2661C99.331 22.2702 99.3182 22.2713 99.3055 22.2694H96.9853V24.5093C96.9874 24.6748 97.0398 24.8358 97.1356 24.9706C97.18 25.0413 97.2421 25.0989 97.3156 25.1379C97.3891 25.1771 97.4716 25.1963 97.555 25.1935H99.1707C99.1834 25.1919 99.1963 25.193 99.2084 25.1971C99.2206 25.201 99.2316 25.2079 99.2407 25.2171C99.2497 25.226 99.2566 25.237 99.2605 25.2491C99.2646 25.2615 99.2657 25.2743 99.264 25.287V26.2304C99.2657 26.2431 99.2646 26.256 99.2605 26.2683C99.2566 26.2805 99.2497 26.2915 99.2407 26.3004C99.2316 26.3096 99.2206 26.3163 99.2084 26.3204C99.1963 26.3245 99.1834 26.3256 99.1707 26.3237H97.3789C97.1294 26.3265 96.882 26.2752 96.654 26.1735C96.439 26.0776 96.244 25.9422 96.0791 25.7742C95.749 25.4363 95.5648 24.9819 95.5663 24.5093V22.2694H94.6654C94.6527 22.2713 94.6399 22.2702 94.6277 22.2661C94.6156 22.262 94.6046 22.2552 94.5955 22.2461C94.5865 22.2371 94.5796 22.2259 94.5757 22.2138C94.5716 22.2017 94.5704 22.1888 94.5721 22.1761V21.2325C94.5703 21.22 94.5716 21.207 94.5755 21.1948C94.5796 21.1827 94.5865 21.1717 94.5955 21.1625C94.6046 21.1536 94.6156 21.1467 94.6277 21.1426C94.6399 21.1387 94.6527 21.1374 94.6654 21.1392H95.5663V19.8637C95.5646 19.851 95.5657 19.8381 95.5698 19.826C95.5738 19.8138 95.5807 19.8028 95.5896 19.7937C95.5988 19.7847 95.6098 19.7778 95.6219 19.7737C95.634 19.7698 95.6469 19.7685 95.6596 19.7704H96.892Z" fill="white"/>
    <path d="M105.962 21.1395C105.975 21.1377 105.988 21.1388 106 21.1429C106.012 21.147 106.023 21.1537 106.032 21.1629C106.041 21.1718 106.048 21.183 106.052 21.1952C106.056 21.2073 106.058 21.2202 106.056 21.2328V23.6798C106.056 23.9588 106.041 24.2376 106.009 24.5147C105.983 24.7612 105.925 25.0034 105.838 25.2353C105.754 25.4547 105.625 25.6542 105.46 25.8212C105.278 25.9953 105.055 26.1216 104.813 26.1892C104.577 26.2642 104.334 26.3145 104.088 26.3397C103.846 26.3638 103.546 26.3759 103.187 26.3759C102.828 26.3759 102.526 26.3638 102.28 26.3397C102.036 26.3157 101.794 26.2653 101.561 26.1892C101.32 26.1188 101.099 25.9908 100.918 25.816C100.753 25.6505 100.622 25.4529 100.535 25.2355C100.442 25.0007 100.379 24.755 100.349 24.5044C100.314 24.2309 100.296 23.9554 100.297 23.6798V21.2328C100.295 21.2202 100.296 21.2073 100.3 21.1952C100.304 21.183 100.311 21.1718 100.32 21.1629C100.329 21.1537 100.34 21.147 100.352 21.1429C100.365 21.1388 100.378 21.1377 100.39 21.1395H101.623C101.635 21.1377 101.648 21.1388 101.66 21.1429C101.673 21.1468 101.684 21.1537 101.693 21.1627C101.702 21.1718 101.709 21.1828 101.713 21.195C101.717 21.2071 101.718 21.22 101.716 21.2327V23.6737C101.716 23.8459 101.723 24.0131 101.737 24.1752C101.749 24.3269 101.773 24.4773 101.809 24.6251C101.84 24.7348 101.893 24.8369 101.965 24.9252C102.04 25.0127 102.136 25.0802 102.244 25.1217C102.374 25.1732 102.51 25.2079 102.648 25.2252C103.007 25.2526 103.367 25.2526 103.725 25.2252C103.864 25.2079 103.999 25.1732 104.129 25.1217C104.239 25.0838 104.336 25.0157 104.409 24.9252C104.475 24.8347 104.524 24.7332 104.554 24.6251C104.591 24.4831 104.614 24.3376 104.621 24.1909C104.632 24.0252 104.637 23.8528 104.637 23.6739V21.2327C104.635 21.22 104.636 21.2071 104.64 21.195C104.644 21.1828 104.651 21.1716 104.66 21.1627C104.669 21.1537 104.68 21.1468 104.692 21.1429C104.705 21.1388 104.717 21.1377 104.73 21.1395H105.962Z" fill="white"/>
    <path d="M111.418 21.1376C111.431 21.1358 111.444 21.1369 111.456 21.141C111.468 21.1449 111.479 21.1518 111.488 21.1609C111.497 21.1699 111.504 21.1809 111.508 21.1932C111.512 21.2054 111.513 21.2182 111.512 21.2309V22.1745C111.513 22.1872 111.512 22.2001 111.508 22.2122C111.504 22.2243 111.497 22.2354 111.488 22.2445C111.479 22.2536 111.468 22.2604 111.456 22.2645C111.444 22.2686 111.431 22.2697 111.418 22.2678H109.347C109.178 22.2637 109.009 22.2811 108.845 22.3197C108.736 22.3445 108.635 22.3941 108.549 22.4649C108.482 22.5255 108.433 22.6048 108.41 22.6929C108.384 22.7912 108.372 22.8924 108.373 22.9937V26.2288C108.375 26.2415 108.374 26.2544 108.37 26.2667C108.366 26.2788 108.359 26.2899 108.35 26.2988C108.341 26.308 108.33 26.3147 108.318 26.3188C108.306 26.3229 108.293 26.324 108.28 26.3223H107.048C107.035 26.324 107.022 26.3229 107.01 26.3188C106.998 26.3147 106.987 26.308 106.978 26.2988C106.969 26.2899 106.962 26.2788 106.958 26.2667C106.954 26.2544 106.953 26.2415 106.954 26.2288V22.8485C106.938 22.6063 106.98 22.3637 107.076 22.1409C107.173 21.9181 107.321 21.7217 107.508 21.5679C108.025 21.2406 108.634 21.0897 109.243 21.1376H111.418Z" fill="white"/>
    <path d="M116.636 21.1388C116.876 21.1371 117.113 21.1839 117.334 21.2765C117.554 21.3692 117.754 21.5056 117.921 21.6779C118.08 21.8452 118.208 22.0402 118.299 22.2533C118.391 22.4679 118.439 22.6991 118.438 22.9327V23.814C118.431 23.9476 118.374 24.0735 118.278 24.1667C118.228 24.2232 118.167 24.2683 118.098 24.2988C118.029 24.3292 117.954 24.3441 117.879 24.3428H113.85V24.5398C113.851 24.7016 113.906 24.8585 114.006 24.9858C114.054 25.0526 114.118 25.1065 114.192 25.1425C114.266 25.1787 114.348 25.1961 114.43 25.1931H118.066C118.128 25.1931 118.159 25.2209 118.159 25.2761V26.23C118.161 26.2427 118.159 26.2556 118.156 26.2677C118.151 26.28 118.145 26.291 118.136 26.3C118.127 26.3091 118.116 26.3158 118.103 26.3199C118.091 26.3241 118.078 26.3252 118.066 26.3233H114.244C113.994 26.3263 113.747 26.2694 113.524 26.1576C113.311 26.0505 113.121 25.9025 112.965 25.7219C112.809 25.5411 112.683 25.3364 112.592 25.1155C112.5 24.8962 112.446 24.6632 112.431 24.4258C112.424 24.3292 112.419 24.2202 112.416 24.0991C112.412 23.9784 112.411 23.8556 112.411 23.731C112.411 23.6067 112.412 23.4858 112.416 23.368C112.419 23.2508 112.424 23.1402 112.431 23.0365C112.439 22.7976 112.49 22.5621 112.582 22.3416C112.672 22.1177 112.8 21.9109 112.96 21.7297C113.118 21.5506 113.31 21.4045 113.524 21.2994C113.748 21.1908 113.995 21.1358 114.244 21.1388H116.636ZM116.854 23.2124C116.875 23.212 116.897 23.2072 116.916 23.1982C116.936 23.1895 116.953 23.1766 116.968 23.1605C116.984 23.1445 116.998 23.1251 117.007 23.1038C117.016 23.0824 117.02 23.0594 117.02 23.0363V22.8599C117.036 22.7816 117.033 22.7004 117.011 22.6235C116.989 22.5466 116.949 22.4761 116.894 22.4181C116.839 22.36 116.771 22.3162 116.696 22.2903C116.62 22.2641 116.539 22.2569 116.46 22.269H114.43C114.351 22.2649 114.272 22.2781 114.199 22.3076C114.126 22.3371 114.06 22.3824 114.006 22.4401C113.902 22.5547 113.846 22.7051 113.85 22.8599V23.2124H116.854Z" fill="white"/>
    <path d="M12.9228 23.2559H0.424805V23.6985H12.9228V23.2559Z" fill="white"/>
    <path d="M86.9229 19.0651L81.3372 19.0547L81.3328 26.2097C81.3328 26.2857 81.3602 26.3237 81.4156 26.3237H82.8345C82.8966 26.3237 82.9276 26.2857 82.9276 26.2097V23.3166H86.7261C86.8158 23.3166 86.8608 23.2856 86.8608 23.2231V22.1554C86.8608 22.1 86.8158 22.0722 86.7261 22.0722L82.91 22.0837V20.3033L86.9229 20.3096C86.9356 20.3113 86.9485 20.3102 86.9606 20.3061C86.9728 20.3021 86.9838 20.2952 86.9929 20.2863C87.0019 20.2771 87.0088 20.2661 87.0127 20.254C87.0168 20.2419 87.0179 20.2288 87.0162 20.2161V19.1585C87.0179 19.1458 87.0168 19.1328 87.0127 19.1207C87.0088 19.1085 87.0019 19.0975 86.9929 19.0884C86.9838 19.0794 86.9728 19.0725 86.9606 19.0685C86.9485 19.0644 86.9356 19.0633 86.9229 19.0651Z" fill="white"/>
    <path d="M134.333 23.2559H121.834V23.6985H134.333V23.2559Z" fill="white"/>
</svg>
