<svg xmlns="http://www.w3.org/2000/svg" width="135" height="27" viewBox="0 0 135 27" fill="none">
    <path d="M87.2599 0.626953H70.167C69.7933 0.627196 69.4351 0.775828 69.1709 1.04023C68.9066 1.30463 68.7579 1.6632 68.7573 2.03724V11.92C68.7573 12.2946 68.9056 12.6539 69.17 12.919C69.4344 13.1841 69.7929 13.3333 70.167 13.3339H87.2599C87.6339 13.3335 87.9927 13.1843 88.257 12.9191C88.5212 12.654 88.6695 12.2946 88.6693 11.92V2.03724C88.669 1.66316 88.5203 1.3045 88.2561 1.04007C87.9917 0.775637 87.6335 0.627058 87.2599 0.626953ZM72.5455 10.6592V3.29991C72.5455 3.29157 72.547 3.28329 72.55 3.27556C72.5531 3.26782 72.5576 3.26077 72.5636 3.25484C72.5694 3.2489 72.5763 3.24422 72.5839 3.24101C72.5916 3.23782 72.6 3.23618 72.6082 3.23622H84.8194C84.8278 3.23616 84.836 3.23777 84.8439 3.24094C84.8515 3.24413 84.8586 3.24883 84.8646 3.25474C84.8704 3.26068 84.8752 3.26771 84.8784 3.27545C84.8816 3.28319 84.883 3.29151 84.883 3.29991V10.6592C84.8832 10.6763 84.8765 10.6928 84.8648 10.705C84.8528 10.7173 84.8366 10.7244 84.8194 10.7247H72.6082C72.5998 10.7245 72.5916 10.7227 72.5837 10.7193C72.5761 10.7159 72.5692 10.711 72.5634 10.7049C72.5576 10.6989 72.5529 10.6917 72.55 10.6838C72.5468 10.676 72.5453 10.6676 72.5455 10.6592Z" fill="#C2C2C2"/>
    <path d="M19.6245 0.626954H16.0934C16.0593 0.626998 16.0267 0.640473 16.0026 0.664473C15.9784 0.688474 15.9647 0.721053 15.9644 0.755118V10.6592C15.9648 10.6677 15.9634 10.6761 15.9604 10.684C15.9574 10.6919 15.9529 10.6992 15.947 10.7053C15.9412 10.7114 15.9341 10.7163 15.9264 10.7196C15.9186 10.7229 15.9102 10.7247 15.9018 10.7247H4.27561C4.25857 10.7242 4.2424 10.7171 4.23053 10.7049C4.21865 10.6926 4.21201 10.6763 4.21201 10.6592V8.56088C4.2116 8.5271 4.19796 8.49482 4.174 8.471C4.15007 8.44719 4.11774 8.43376 4.08399 8.43355H0.552826C0.519028 8.43359 0.486614 8.447 0.462637 8.47085C0.43866 8.49469 0.42506 8.52704 0.424805 8.56088V11.92C0.424525 12.2946 0.572845 12.654 0.837151 12.9191C1.10146 13.1843 1.46012 13.3335 1.83428 13.3339H18.3431C18.7172 13.3333 19.0758 13.184 19.34 12.9189C19.6044 12.6538 19.7527 12.2945 19.7525 11.92V0.755118C19.7525 0.738275 19.7493 0.721602 19.743 0.706033C19.7365 0.690464 19.7271 0.676304 19.7152 0.664394C19.7033 0.652484 19.6891 0.643044 19.6736 0.636617C19.6581 0.630191 19.6413 0.626912 19.6245 0.626954Z" fill="#C2C2C2"/>
    <path d="M65.2557 0.626953H45.844C45.8101 0.627013 45.7776 0.640531 45.7536 0.664552C45.7297 0.688574 45.7161 0.721135 45.7161 0.755118V3.10799C45.7163 3.14195 45.7299 3.17443 45.7537 3.19844C45.7778 3.22243 45.8103 3.23601 45.844 3.23624H53.5918C53.6002 3.23601 53.6086 3.23749 53.6164 3.2406C53.6243 3.2437 53.6315 3.24836 53.6375 3.2543C53.6435 3.26025 53.6483 3.26735 53.6515 3.27519C53.6547 3.28303 53.6564 3.29142 53.6562 3.29991V13.2058C53.6565 13.2399 53.6702 13.2724 53.6944 13.2964C53.7185 13.3204 53.7511 13.3339 53.7853 13.334H57.3137C57.3479 13.334 57.3807 13.3206 57.4051 13.2966C57.4296 13.2727 57.4438 13.24 57.4443 13.2058V3.29991C57.4441 3.29153 57.4454 3.28319 57.4484 3.2754C57.4516 3.2676 57.4561 3.26047 57.462 3.25452C57.4678 3.24855 57.4749 3.24387 57.4826 3.24073C57.4904 3.23758 57.4986 3.23605 57.507 3.23624H65.2557C65.2895 3.23583 65.3219 3.22219 65.3458 3.19821C65.3697 3.17426 65.3833 3.14187 65.3837 3.10799V0.755118C65.3835 0.721197 65.3699 0.688723 65.346 0.664737C65.3219 0.640751 65.2896 0.627189 65.2557 0.626953Z" fill="#C2C2C2"/>
    <path d="M111.149 0.626957H107.619C107.585 0.626843 107.553 0.640284 107.529 0.664319C107.504 0.688354 107.491 0.721008 107.49 0.755122V10.6592C107.491 10.6676 107.489 10.676 107.486 10.6838C107.483 10.6917 107.479 10.6989 107.473 10.7049C107.467 10.711 107.46 10.7159 107.452 10.7193C107.445 10.7227 107.436 10.7245 107.428 10.7247H95.8946C95.8862 10.7246 95.8779 10.7228 95.87 10.7195C95.8622 10.7161 95.8553 10.7113 95.8493 10.7052C95.8433 10.6991 95.8387 10.6919 95.8357 10.684C95.8325 10.6761 95.831 10.6677 95.8312 10.6592V0.755122C95.8312 0.738207 95.8279 0.721445 95.8213 0.705826C95.8148 0.690207 95.8053 0.676052 95.7933 0.664134C95.7814 0.652217 95.767 0.64279 95.7516 0.63641C95.7359 0.63003 95.7191 0.626818 95.7021 0.626957H92.172C92.1552 0.627014 92.1386 0.63036 92.1231 0.636833C92.1078 0.643306 92.0936 0.652786 92.0819 0.664689C92.0701 0.676592 92.0608 0.690703 92.0544 0.706222C92.0481 0.721741 92.0447 0.738351 92.0449 0.755122V11.92C92.0444 12.2945 92.1925 12.6539 92.4567 12.919C92.7208 13.1842 93.0794 13.3335 93.4535 13.334H109.868C110.242 13.3335 110.601 13.1843 110.866 12.9192C111.13 12.6541 111.279 12.2947 111.279 11.92V0.755122C111.278 0.720909 111.264 0.688229 111.24 0.664213C111.216 0.640198 111.183 0.626805 111.149 0.626957Z" fill="#C2C2C2"/>
    <path d="M134.321 13.1006L127.112 8.15136H132.727C133.101 8.15143 133.458 8.0031 133.722 7.73898C133.986 7.47486 134.135 7.11661 134.135 6.74298V2.03724C134.135 1.85209 134.099 1.66872 134.028 1.49763C133.958 1.32653 133.854 1.17106 133.723 1.0401C133.592 0.909131 133.437 0.805232 133.266 0.734341C133.095 0.663449 132.912 0.626972 132.727 0.626956H114.781C114.765 0.626843 114.748 0.630086 114.732 0.636488C114.717 0.642889 114.703 0.652314 114.691 0.664238C114.679 0.676163 114.669 0.690329 114.663 0.70593C114.656 0.721531 114.653 0.738257 114.653 0.755121V13.2058C114.654 13.2398 114.667 13.2723 114.691 13.2963C114.715 13.3203 114.748 13.3339 114.781 13.334H118.312C118.345 13.3336 118.378 13.3199 118.402 13.296C118.426 13.2721 118.439 13.2397 118.44 13.2058V6.00968L129.031 13.2777C129.085 13.3142 129.149 13.3338 129.214 13.334H134.249C134.277 13.3339 134.303 13.325 134.325 13.3088C134.347 13.2926 134.363 13.2698 134.371 13.2437C134.379 13.2177 134.378 13.1897 134.369 13.164C134.36 13.1382 134.344 13.116 134.321 13.1006ZM118.503 3.23624H130.286C130.295 3.23616 130.303 3.23775 130.311 3.24092C130.318 3.24407 130.326 3.24875 130.331 3.25467C130.337 3.26058 130.342 3.26763 130.345 3.2754C130.349 3.28316 130.351 3.29148 130.351 3.29991V5.4803C130.351 5.48874 130.349 5.49706 130.345 5.50482C130.342 5.51258 130.337 5.51958 130.331 5.52549C130.326 5.5314 130.318 5.53607 130.311 5.53922C130.303 5.54237 130.295 5.54396 130.286 5.54387H118.503C118.495 5.54394 118.487 5.54234 118.479 5.53917C118.471 5.53599 118.464 5.53133 118.458 5.52541C118.452 5.5195 118.448 5.51245 118.444 5.50471C118.441 5.49696 118.44 5.48868 118.44 5.4803V3.29991C118.44 3.29153 118.441 3.28323 118.444 3.27549C118.448 3.26773 118.452 3.26071 118.458 3.25478C118.464 3.24885 118.471 3.24415 118.479 3.24098C118.487 3.23778 118.495 3.23618 118.503 3.23624Z" fill="#C2C2C2"/>
    <path d="M42.2135 3.23624C42.2474 3.23616 42.2801 3.22262 42.304 3.19859C42.328 3.17456 42.3415 3.14198 42.3416 3.10799V0.755118C42.3416 0.738271 42.3383 0.721577 42.3319 0.706007C42.3254 0.690438 42.3161 0.676303 42.3042 0.664395C42.2922 0.652486 42.278 0.643043 42.2625 0.636618C42.2471 0.630192 42.2303 0.626913 42.2135 0.626954H24.5374C24.3524 0.626765 24.169 0.663104 23.9979 0.73389C23.8268 0.804675 23.6714 0.908517 23.5404 1.03949C23.4095 1.17046 23.3056 1.32598 23.2347 1.49717C23.1636 1.66837 23.1272 1.8519 23.1272 2.03724V11.92C23.1268 12.2947 23.2753 12.6542 23.5399 12.9194C23.8042 13.1845 24.1632 13.3337 24.5374 13.3339H42.2135C42.2474 13.3337 42.2799 13.3201 42.3038 13.2962C42.3278 13.2722 42.3413 13.2397 42.3416 13.2058V10.8538C42.3418 10.8368 42.3385 10.8201 42.3321 10.8044C42.3258 10.7887 42.3163 10.7745 42.3045 10.7625C42.2926 10.7505 42.2784 10.7409 42.2627 10.7344C42.2471 10.728 42.2305 10.7246 42.2135 10.7247H26.9788C26.9702 10.7248 26.9616 10.7232 26.9536 10.72C26.9454 10.7167 26.9381 10.7119 26.932 10.7058C26.9258 10.6997 26.9209 10.6925 26.9176 10.6845C26.9142 10.6765 26.9126 10.6679 26.9126 10.6592V8.34876C26.9126 8.34007 26.9142 8.33147 26.9176 8.32346C26.9209 8.31544 26.9258 8.30815 26.932 8.30204C26.9381 8.29594 26.9454 8.29115 26.9534 8.28792C26.9616 8.28468 26.9702 8.28305 26.9788 8.28318H41.2379C41.2547 8.28341 41.2715 8.28027 41.2874 8.27393C41.3031 8.26757 41.3172 8.25817 41.3294 8.24623C41.3413 8.23429 41.3508 8.22009 41.3573 8.20443C41.3637 8.18876 41.367 8.17197 41.367 8.15503V5.80492C41.367 5.78793 41.3639 5.77108 41.3573 5.75535C41.3508 5.73964 41.3413 5.72535 41.3294 5.71336C41.3174 5.70134 41.3031 5.69183 41.2874 5.68539C41.2717 5.67894 41.2549 5.67569 41.2379 5.6758H26.9788C26.9616 5.67618 26.945 5.66966 26.9325 5.65772C26.92 5.64578 26.9129 5.62939 26.9126 5.61215V3.29991C26.9126 3.29131 26.9142 3.28282 26.9176 3.27493C26.9209 3.26704 26.926 3.25991 26.9321 3.25396C26.9383 3.24801 26.9458 3.24338 26.9536 3.24034C26.9616 3.23728 26.9702 3.23588 26.9788 3.23622L42.2135 3.23624Z" fill="#C2C2C2"/>
    <path d="M20.9263 19.0626C21.261 19.0592 21.5925 19.1263 21.8996 19.2597C22.4863 19.5134 22.9533 19.9828 23.2046 20.5712C23.3356 20.8715 23.4126 21.1926 23.4322 21.5197C23.4391 21.665 23.4442 21.843 23.4479 22.0536C23.4511 22.2646 23.4527 22.4805 23.4529 22.7017C23.4529 22.923 23.4512 23.1373 23.4479 23.3444C23.4445 23.5517 23.4393 23.728 23.4322 23.8731C23.413 24.1987 23.336 24.5183 23.2046 24.8168C22.9509 25.4022 22.4845 25.8692 21.8996 26.1229C21.5925 26.2565 21.261 26.3235 20.9263 26.3199H16.3989C16.3434 26.3199 16.3159 26.2888 16.3159 26.2266V19.156C16.3159 19.0938 16.3434 19.0626 16.3989 19.0626L20.9263 19.0626ZM20.7812 25.0759C20.934 25.0795 21.0847 25.0397 21.2162 24.9617C21.3414 24.8851 21.4504 24.7847 21.5371 24.6662C21.6278 24.5438 21.6977 24.4071 21.7444 24.2619C21.7914 24.1188 21.8226 23.9711 21.8375 23.8213C21.8444 23.6832 21.8496 23.5157 21.8532 23.3187C21.8563 23.1217 21.858 22.9159 21.8582 22.7017C21.8582 22.4874 21.8565 22.2801 21.8532 22.0795C21.8494 21.8793 21.8442 21.7066 21.8375 21.5613C21.8293 21.4098 21.8015 21.2598 21.7546 21.1154C21.7093 20.9697 21.6394 20.8329 21.5476 20.7111C21.4584 20.5943 21.3476 20.4958 21.2213 20.4208C21.0877 20.3434 20.9354 20.304 20.7812 20.3068H17.9107V25.0759H20.7812Z" fill="#C2C2C2"/>
    <path d="M28.8143 21.1376C28.827 21.1358 28.8398 21.1369 28.8522 21.141C28.8643 21.1449 28.8753 21.1518 28.8842 21.1609C28.8934 21.1699 28.9001 21.1809 28.9042 21.1932C28.9083 21.2053 28.9094 21.2182 28.9076 21.2309V22.1743C28.9094 22.187 28.9083 22.1999 28.9042 22.212C28.9001 22.2242 28.8934 22.2352 28.8842 22.2443C28.8753 22.2534 28.8643 22.2602 28.8522 22.2643C28.8398 22.2684 28.827 22.2695 28.8143 22.2676H26.7434C26.5744 22.2635 26.4058 22.2809 26.2412 22.3195C26.1328 22.3443 26.0317 22.3939 25.9459 22.4646C25.878 22.5253 25.8293 22.6046 25.8061 22.6926C25.781 22.7909 25.7688 22.8921 25.7699 22.9934V26.228C25.7718 26.2407 25.7707 26.2535 25.7666 26.2659C25.7625 26.278 25.7558 26.289 25.7466 26.2979C25.7377 26.3071 25.7267 26.3138 25.7145 26.3179C25.7022 26.322 25.6894 26.3231 25.6767 26.3214H24.4444C24.4317 26.3231 24.4189 26.322 24.4067 26.3179C24.3946 26.3138 24.3836 26.3071 24.3745 26.2979C24.3655 26.289 24.3586 26.278 24.3547 26.2659C24.3506 26.2535 24.3495 26.2407 24.3511 26.228V22.8482C24.3347 22.6061 24.3765 22.3635 24.4728 22.1408C24.5692 21.918 24.7174 21.7216 24.905 21.5678C25.4218 21.2406 26.0304 21.0897 26.6397 21.1376H28.8143Z" fill="#C2C2C2"/>
    <path d="M31.1318 19.0625C31.1939 19.0625 31.2249 19.0902 31.2251 19.1456V20.3274C31.2268 20.3401 31.2257 20.353 31.2216 20.3651C31.2176 20.3772 31.2107 20.3884 31.2018 20.3974C31.1926 20.4065 31.1816 20.4133 31.1695 20.4174C31.1574 20.4215 31.1445 20.4226 31.1318 20.4207H29.8996C29.8869 20.4226 29.874 20.4215 29.8617 20.4174C29.8496 20.4133 29.8386 20.4065 29.8296 20.3974C29.8205 20.3884 29.8138 20.3772 29.8097 20.3651C29.8055 20.353 29.8044 20.3401 29.8063 20.3274V19.1456C29.8063 19.0902 29.8373 19.0625 29.8996 19.0625H31.1318ZM31.1318 21.1362C31.1939 21.1362 31.2249 21.1638 31.2251 21.2188V26.2265C31.2268 26.2392 31.2257 26.2521 31.2216 26.2642C31.2176 26.2764 31.2107 26.2874 31.2018 26.2965C31.1926 26.3055 31.1816 26.3124 31.1695 26.3165C31.1574 26.3204 31.1445 26.3217 31.1318 26.3198H29.8996C29.8869 26.3217 29.874 26.3204 29.8617 26.3165C29.8496 26.3124 29.8386 26.3055 29.8296 26.2965C29.8205 26.2874 29.8138 26.2764 29.8097 26.2642C29.8055 26.2521 29.8044 26.2392 29.8063 26.2265V21.2188C29.8063 21.1638 29.8373 21.1362 29.8996 21.1362H31.1318Z" fill="#C2C2C2"/>
    <path d="M38.4089 21.1062C38.5124 21.1062 38.54 21.1511 38.4915 21.241C38.1671 21.9806 37.8736 22.6475 37.6113 23.2419C37.5009 23.4975 37.3902 23.7499 37.28 23.9988C37.1695 24.2475 37.0695 24.4719 36.9798 24.6727C36.8899 24.8732 36.8156 25.0424 36.757 25.1807C36.6983 25.3189 36.6621 25.4019 36.6483 25.4296C36.5686 25.6156 36.4641 25.7898 36.3376 25.9478C36.2311 26.0764 36.0914 26.1732 35.9337 26.2277C35.8431 26.2661 35.747 26.2907 35.649 26.3004C35.5339 26.3142 35.4181 26.3211 35.302 26.3209C35.1912 26.3215 35.0806 26.3146 34.9707 26.3004C34.8778 26.2894 34.7871 26.265 34.7015 26.2277C34.5444 26.1667 34.4041 26.0689 34.2925 25.9426C34.1619 25.7885 34.0556 25.6154 33.9765 25.4296C33.9625 25.4018 33.9248 25.3189 33.8627 25.1807C33.8008 25.0422 33.7261 24.8732 33.6401 24.6727C33.5539 24.4721 33.4554 24.2473 33.345 23.9988C33.2347 23.7501 33.1239 23.4975 33.0135 23.2419C32.7512 22.6475 32.4577 21.9806 32.1333 21.241C32.1057 21.1511 32.1368 21.1062 32.2265 21.1062H33.376C33.4366 21.1019 33.497 21.1179 33.5478 21.1517C33.5983 21.1854 33.6364 21.2351 33.6556 21.2927L35.2089 24.8072C35.2123 24.821 35.2186 24.8337 35.2276 24.8445C35.2365 24.8551 35.2479 24.8637 35.2608 24.8695C35.277 24.877 35.2948 24.8805 35.3127 24.8799C35.3306 24.8822 35.3489 24.8786 35.3645 24.8695C35.3791 24.865 35.3925 24.8572 35.4033 24.8462C35.4142 24.8354 35.4222 24.8219 35.4265 24.8072L36.9695 21.2927C36.9919 21.2351 37.032 21.1858 37.0841 21.1522C37.1363 21.1187 37.1977 21.1026 37.2594 21.1062H38.4089Z" fill="#C2C2C2"/>
    <path d="M43.6382 21.1368C43.8775 21.1352 44.1147 21.182 44.3354 21.2745C44.5561 21.3672 44.7557 21.5036 44.9223 21.6758C45.082 21.8432 45.21 22.0381 45.3003 22.2512C45.3928 22.4657 45.4404 22.6969 45.44 22.9304V23.8116C45.4329 23.9452 45.3756 24.0711 45.2795 24.1642C45.2299 24.2207 45.1685 24.2659 45.0995 24.2963C45.0307 24.3267 44.956 24.3416 44.8807 24.3403H40.8528V24.5373C40.8535 24.6991 40.9082 24.856 41.008 24.9832C41.0563 25.05 41.1203 25.1039 41.1944 25.1399C41.2685 25.1761 41.3502 25.1935 41.4326 25.1905H45.0672C45.1294 25.1905 45.1605 25.2183 45.1605 25.2735V26.2272C45.1624 26.2399 45.1613 26.2528 45.1572 26.2649C45.1531 26.2772 45.1463 26.2882 45.1372 26.2972C45.1282 26.3063 45.1172 26.313 45.1051 26.3171C45.0928 26.3212 45.0799 26.3223 45.0672 26.3205H41.2461C40.9964 26.3235 40.7496 26.2666 40.5265 26.1548C40.3133 26.0477 40.1233 25.8998 39.9672 25.7192C39.8112 25.5384 39.6853 25.3337 39.5944 25.1129C39.5024 24.8936 39.4482 24.6606 39.434 24.4233C39.4269 24.3267 39.4217 24.2177 39.4183 24.0967C39.415 23.9759 39.4131 23.8532 39.4131 23.7286C39.4131 23.6043 39.415 23.4834 39.4183 23.3657C39.4219 23.2485 39.4271 23.1379 39.434 23.0342C39.4414 22.7954 39.4924 22.5599 39.584 22.3394C39.6746 22.1155 39.8024 21.9088 39.962 21.7277C40.1202 21.5486 40.3119 21.4025 40.5265 21.2975C40.7506 21.1889 40.997 21.1338 41.2461 21.1368H43.6382ZM43.8555 23.2101C43.8772 23.2097 43.8984 23.2049 43.918 23.1959C43.9376 23.1872 43.9551 23.1743 43.9697 23.1582C43.9863 23.1422 43.9995 23.1228 44.0085 23.1015C44.0175 23.0801 44.0217 23.0571 44.0216 23.034V22.8577C44.0378 22.7793 44.0348 22.6982 44.013 22.6213C43.9911 22.5444 43.951 22.4739 43.8962 22.4159C43.8411 22.3579 43.7731 22.314 43.6975 22.2881C43.6219 22.262 43.5413 22.2547 43.4622 22.2668H41.4324C41.3535 22.2627 41.2748 22.276 41.2015 22.3055C41.1282 22.3349 41.0621 22.3803 41.008 22.4379C40.9043 22.5525 40.8485 22.7028 40.8526 22.8577V23.2101H43.8555Z" fill="#C2C2C2"/>
    <path d="M58.6214 19.063C58.6387 19.062 58.6559 19.0662 58.6706 19.0753C58.6852 19.0844 58.6968 19.0978 58.7037 19.1137C58.7104 19.1296 58.7122 19.1472 58.7085 19.1642C58.705 19.1811 58.6962 19.1965 58.6835 19.2082L54.769 23.5107V26.2271C54.7709 26.2398 54.7698 26.2526 54.7657 26.2648C54.7616 26.2769 54.7549 26.2881 54.7457 26.297C54.7368 26.3062 54.7258 26.3129 54.7136 26.317C54.7013 26.3211 54.6885 26.3222 54.6758 26.3204H53.2676C53.2549 26.3222 53.242 26.3209 53.2299 26.317C53.2178 26.3129 53.2068 26.306 53.1976 26.297C53.1887 26.2879 53.1818 26.2769 53.1779 26.2648C53.1738 26.2526 53.1726 26.2398 53.1743 26.2271V23.4798L49.2705 19.2082C49.2574 19.197 49.2487 19.1814 49.2459 19.1644C49.2431 19.1473 49.2462 19.1298 49.255 19.1149C49.2612 19.0994 49.272 19.0862 49.2858 19.0769C49.2996 19.0677 49.316 19.0628 49.3326 19.063H50.9066C50.9708 19.0599 51.0348 19.0713 51.094 19.0964C51.1531 19.1216 51.2059 19.1598 51.2482 19.2082L53.7541 21.9348C53.815 21.9945 53.8969 22.0281 53.9821 22.0281C54.0672 22.0281 54.1491 21.9945 54.2099 21.9348L56.7056 19.2082C56.7479 19.1598 56.8007 19.1216 56.8599 19.0964C56.919 19.0713 56.9832 19.0599 57.0474 19.063L58.6214 19.063Z" fill="#C2C2C2"/>
    <path d="M61.9649 21.0859C62.3169 21.0859 62.6604 21.0928 62.9951 21.1066C63.2996 21.1152 63.6012 21.1677 63.8908 21.2621C64.1283 21.3372 64.3458 21.4648 64.5277 21.6354C64.6934 21.7997 64.8223 21.9977 64.9057 22.2159H64.8952C64.9937 22.4437 65.0583 22.6848 65.0868 22.9314C65.1187 23.1997 65.1342 23.4698 65.1335 23.7402C65.1338 24.0034 65.1184 24.2665 65.0868 24.528C65.0583 24.7745 64.9937 25.0155 64.8952 25.2433H64.9057C64.8249 25.4644 64.6958 25.6646 64.5277 25.8291C64.3436 25.9978 64.1268 26.1265 63.8908 26.2075C63.6078 26.2903 63.3156 26.3373 63.021 26.3474C62.6826 26.3645 62.3306 26.3731 61.9649 26.3733C61.6058 26.3733 61.2571 26.3647 60.9188 26.3474C60.6243 26.3373 60.3321 26.2903 60.0491 26.2075C59.8157 26.1364 59.6019 26.0125 59.4241 25.8452C59.2463 25.678 59.1094 25.472 59.0239 25.2433C58.931 25.0176 58.8685 24.7804 58.8375 24.5383C58.8025 24.2737 58.7851 24.0069 58.7857 23.7402C58.7847 23.4663 58.8019 23.1926 58.8375 22.9212C58.8685 22.6788 58.931 22.4419 59.0239 22.2159C59.1112 21.9986 59.2416 21.801 59.4071 21.6354C59.5877 21.4607 59.808 21.3326 60.0491 21.2621C60.3412 21.1802 60.6416 21.1315 60.9448 21.1169C61.2866 21.0964 61.6265 21.0859 61.9649 21.0859ZM61.9649 25.2433C62.2063 25.2433 62.4376 25.2398 62.6585 25.2329C62.8412 25.2323 63.0227 25.2043 63.1971 25.1498C63.3108 25.1136 63.4115 25.0452 63.4871 24.9528C63.5531 24.8622 63.6022 24.7603 63.6318 24.6521C63.6684 24.5166 63.691 24.3776 63.6994 24.2375C63.7096 24.0855 63.7148 23.9196 63.7148 23.74C63.7148 23.5532 63.7096 23.3822 63.6994 23.2267C63.6912 23.0848 63.6686 22.9441 63.6318 22.8068C63.6005 22.696 63.5516 22.5909 63.4871 22.4958C63.4163 22.4005 63.3132 22.334 63.1971 22.3092C63.0158 22.2635 62.83 22.2374 62.6432 22.2314C62.4255 22.221 62.1994 22.2158 61.9649 22.2159C61.7231 22.2159 61.4953 22.2195 61.2813 22.2264C61.0955 22.229 60.9108 22.2568 60.7326 22.3094C60.619 22.3368 60.5185 22.4027 60.4478 22.4958C60.38 22.59 60.3291 22.6952 60.2976 22.8068C60.2621 22.9499 60.2379 23.0956 60.2252 23.2424C60.211 23.3945 60.2041 23.5603 60.2043 23.7402C60.2043 23.9058 60.2112 24.0648 60.2252 24.2168C60.2379 24.3637 60.2621 24.5092 60.2976 24.6523C60.328 24.7622 60.3808 24.8646 60.4528 24.953C60.5284 25.0407 60.6244 25.1084 60.7326 25.15C60.9069 25.2045 61.0884 25.2325 61.2709 25.233C61.4918 25.2398 61.7231 25.2433 61.9649 25.2433Z" fill="#C2C2C2"/>
    <path d="M71.6968 21.1376C71.7095 21.1357 71.7223 21.1369 71.7345 21.141C71.7466 21.1451 71.7576 21.1518 71.7667 21.1609C71.7757 21.1699 71.7826 21.1811 71.7865 21.1932C71.7906 21.2053 71.7917 21.2182 71.7901 21.2309V23.6775C71.7906 23.9564 71.7751 24.2351 71.7432 24.5121C71.7171 24.7586 71.6597 25.0008 71.5723 25.2328C71.4882 25.452 71.3595 25.6515 71.1944 25.8185C71.0121 25.9925 70.7899 26.1188 70.5472 26.1864C70.3114 26.2614 70.0685 26.3117 69.8224 26.3369C69.5806 26.361 69.2802 26.3731 68.9215 26.3731C68.5625 26.3731 68.2605 26.361 68.0153 26.3369C67.7708 26.3128 67.5295 26.2625 67.2958 26.1864C67.0547 26.116 66.8342 25.988 66.6536 25.8132C66.4881 25.6477 66.3577 25.4502 66.2706 25.2328C66.1773 24.9981 66.1146 24.7524 66.0842 24.5019C66.049 24.2284 66.0318 23.9532 66.0324 23.6775V21.2309C66.0305 21.2182 66.0316 21.2053 66.0357 21.1932C66.0396 21.1811 66.0466 21.1699 66.0555 21.1609C66.0646 21.1518 66.0757 21.1451 66.0878 21.141C66.0999 21.1369 66.1128 21.1357 66.1255 21.1376H67.3579C67.3706 21.1357 67.3835 21.1369 67.3956 21.141C67.4077 21.1449 67.4187 21.1518 67.4277 21.1607C67.4368 21.1699 67.4435 21.1809 67.4476 21.193C67.4517 21.2051 67.4529 21.218 67.4512 21.2307V23.6713C67.4512 23.8435 67.4581 24.0107 67.4717 24.1728C67.4838 24.3245 67.5081 24.4748 67.5441 24.6228C67.5747 24.7323 67.6277 24.8343 67.6997 24.9226C67.7752 25.0101 67.8713 25.0776 67.9792 25.119C68.109 25.1705 68.2446 25.2052 68.3831 25.2226C68.7414 25.25 69.1015 25.25 69.4601 25.2226C69.5985 25.2052 69.7341 25.1705 69.864 25.119C69.9737 25.0812 70.0705 25.0131 70.1435 24.9226C70.2093 24.8321 70.2586 24.7306 70.2884 24.6228C70.3257 24.4806 70.3483 24.3351 70.3558 24.1885C70.3662 24.0228 70.3713 23.8506 70.3714 23.6715V21.2307C70.3696 21.218 70.3707 21.2051 70.3748 21.193C70.3789 21.1809 70.3856 21.1697 70.3948 21.1607C70.4037 21.1518 70.4147 21.1449 70.4269 21.1408C70.439 21.1369 70.452 21.1357 70.4645 21.1376H71.6968Z" fill="#C2C2C2"/>
    <path d="M77.1519 21.1376C77.1646 21.1358 77.1775 21.1369 77.1896 21.141C77.2017 21.1449 77.2129 21.1518 77.2219 21.1609C77.231 21.1699 77.2378 21.1809 77.2419 21.1932C77.2458 21.2053 77.2471 21.2182 77.2452 21.2309V22.1743C77.2469 22.187 77.2458 22.1999 77.2419 22.212C77.2378 22.2242 77.2308 22.2352 77.2219 22.2443C77.2128 22.2534 77.2017 22.2602 77.1896 22.2643C77.1775 22.2682 77.1646 22.2695 77.1519 22.2676H75.0809C74.9121 22.2635 74.7434 22.2809 74.5789 22.3195C74.4705 22.3443 74.3694 22.3939 74.2835 22.4646C74.2154 22.5253 74.1669 22.6046 74.1438 22.6926C74.1186 22.7909 74.1063 22.8921 74.1076 22.9934V26.228C74.1095 26.2407 74.1082 26.2535 74.1042 26.2659C74.1001 26.278 74.0932 26.289 74.0843 26.2979C74.0751 26.3071 74.0641 26.3138 74.052 26.3179C74.0399 26.322 74.027 26.3231 74.0143 26.3214H72.7821C72.7694 26.3231 72.7565 26.322 72.7444 26.3179C72.7323 26.3138 72.7213 26.3071 72.7121 26.2979C72.7032 26.289 72.6963 26.278 72.6922 26.2659C72.6882 26.2535 72.6869 26.2407 72.6888 26.228V22.8482C72.6724 22.6061 72.714 22.3635 72.8104 22.1408C72.9069 21.918 73.055 21.7216 73.2427 21.5678C73.7593 21.2406 74.3679 21.0897 74.9774 21.1376H77.1519Z" fill="#C2C2C2"/>
    <path d="M93.5643 21.1376C93.577 21.1357 93.5898 21.1368 93.602 21.141C93.6141 21.1451 93.6251 21.1518 93.6342 21.1609C93.6432 21.1699 93.6501 21.1811 93.654 21.1932C93.6581 21.2053 93.6592 21.2182 93.6576 21.2309V23.6775C93.6581 23.9564 93.6426 24.2351 93.6107 24.5121C93.5846 24.7586 93.5272 25.0007 93.4398 25.2326C93.3557 25.452 93.227 25.6515 93.0619 25.8184C92.8796 25.9925 92.6574 26.1188 92.4147 26.1863C92.1789 26.2613 91.936 26.3117 91.6899 26.3369C91.4481 26.361 91.1477 26.3731 90.789 26.3731C90.43 26.3731 90.128 26.361 89.8828 26.3369C89.6383 26.3128 89.397 26.2625 89.1633 26.1863C88.922 26.116 88.7017 25.988 88.5211 25.8132C88.3556 25.6477 88.2252 25.4502 88.1381 25.2328C88.0448 24.9981 87.982 24.7524 87.9515 24.5019C87.9165 24.2284 87.8993 23.953 87.8997 23.6775V21.2309C87.898 21.2182 87.8991 21.2053 87.9032 21.1932C87.9071 21.1811 87.914 21.1699 87.923 21.1609C87.9321 21.1518 87.9431 21.1451 87.9553 21.141C87.9674 21.1368 87.9803 21.1357 87.993 21.1376H89.2254C89.2379 21.1357 89.251 21.1368 89.2631 21.141C89.2752 21.1451 89.2862 21.1518 89.2952 21.1607C89.3043 21.1699 89.311 21.1809 89.3151 21.193C89.3192 21.2051 89.3204 21.218 89.3185 21.2307V23.6713C89.3185 23.8435 89.3254 24.0107 89.3392 24.1728C89.3513 24.3245 89.3756 24.4748 89.4116 24.6226C89.4422 24.7323 89.4952 24.8343 89.5672 24.9226C89.6427 25.0101 89.7388 25.0776 89.8466 25.119C89.9763 25.1705 90.1121 25.2052 90.2506 25.2226C90.6089 25.25 90.969 25.25 91.3274 25.2226C91.4658 25.2052 91.6016 25.1705 91.7313 25.119C91.8412 25.0812 91.938 25.0131 92.0108 24.9226C92.0768 24.8321 92.1259 24.7306 92.1559 24.6226C92.1932 24.4806 92.2158 24.3351 92.2233 24.1885C92.2335 24.0228 92.2387 23.8504 92.2387 23.6715V21.2307C92.2371 21.218 92.2382 21.2051 92.2423 21.193C92.2462 21.1809 92.2531 21.1697 92.2621 21.1607C92.2712 21.1518 92.2822 21.1449 92.2943 21.141C92.3065 21.1368 92.3193 21.1357 92.332 21.1376H93.5643Z" fill="#C2C2C2"/>
    <path d="M96.876 19.7684C96.8887 19.7666 96.9016 19.7679 96.9137 19.7718C96.9258 19.7759 96.937 19.7828 96.946 19.7917C96.9551 19.8009 96.9618 19.8119 96.966 19.824C96.9699 19.8361 96.9712 19.8492 96.9693 19.8619V21.137H99.289C99.3017 21.1354 99.3146 21.1365 99.3267 21.1406C99.3388 21.1445 99.3498 21.1514 99.3588 21.1604C99.3679 21.1695 99.3747 21.1805 99.3788 21.1926C99.3827 21.2049 99.3838 21.2178 99.3821 21.2305V22.1738C99.3838 22.1865 99.3827 22.1993 99.3788 22.2115C99.3747 22.2236 99.3679 22.2348 99.3588 22.2437C99.3498 22.2529 99.3388 22.2596 99.3267 22.2637C99.3146 22.2678 99.3017 22.2689 99.289 22.267H96.9693V24.5065C96.9714 24.672 97.0238 24.833 97.1195 24.9677C97.1639 25.0384 97.226 25.0961 97.2995 25.1351C97.373 25.1743 97.4555 25.1935 97.5389 25.1907H99.1543C99.167 25.189 99.1799 25.1901 99.192 25.1942C99.2041 25.1981 99.2152 25.205 99.2243 25.2142C99.2333 25.2231 99.2402 25.2341 99.2441 25.2463C99.2482 25.2586 99.2493 25.2715 99.2476 25.2841V26.2274C99.2493 26.2401 99.2482 26.253 99.2441 26.2653C99.2402 26.2774 99.2333 26.2884 99.2243 26.2974C99.2152 26.3065 99.2041 26.3132 99.192 26.3173C99.1799 26.3214 99.167 26.3225 99.1543 26.3207H97.3628C97.1133 26.3235 96.866 26.2722 96.638 26.1705C96.4231 26.0746 96.2281 25.9392 96.0632 25.7713C95.7331 25.4334 95.549 24.9791 95.5505 24.5065V22.267H94.6498C94.6371 22.2689 94.6242 22.2678 94.6121 22.2637C94.6 22.2596 94.589 22.2529 94.5798 22.2437C94.5709 22.2348 94.564 22.2236 94.56 22.2115C94.5559 22.1993 94.5548 22.1865 94.5565 22.1738V21.2303C94.5546 21.2178 94.5559 21.2048 94.5599 21.1926C94.564 21.1805 94.5709 21.1695 94.5798 21.1604C94.589 21.1514 94.6 21.1445 94.6121 21.1404C94.6242 21.1365 94.6371 21.1352 94.6498 21.137H95.5505V19.8617C95.5488 19.849 95.5499 19.8361 95.554 19.824C95.558 19.8119 95.5649 19.8009 95.5738 19.7917C95.583 19.7828 95.594 19.7759 95.6061 19.7718C95.6182 19.7679 95.6311 19.7666 95.6438 19.7684H96.876Z" fill="#C2C2C2"/>
    <path d="M105.945 21.1376C105.957 21.1357 105.97 21.1368 105.982 21.141C105.994 21.1451 106.005 21.1518 106.015 21.1609C106.024 21.1699 106.03 21.1811 106.035 21.1932C106.038 21.2053 106.04 21.2182 106.038 21.2309V23.6775C106.038 23.9564 106.023 24.2351 105.991 24.5121C105.965 24.7586 105.907 25.0007 105.82 25.2326C105.736 25.452 105.607 25.6515 105.442 25.8184C105.26 25.9925 105.038 26.1188 104.795 26.1863C104.559 26.2613 104.316 26.3117 104.07 26.3369C103.829 26.361 103.528 26.3731 103.169 26.3731C102.81 26.3731 102.508 26.361 102.263 26.3369C102.019 26.3128 101.777 26.2625 101.544 26.1863C101.303 26.116 101.082 25.988 100.901 25.8132C100.736 25.6477 100.606 25.4502 100.518 25.2328C100.425 24.9981 100.362 24.7524 100.332 24.5019C100.297 24.2284 100.28 23.953 100.28 23.6775V21.2309C100.278 21.2182 100.279 21.2053 100.284 21.1932C100.288 21.1811 100.294 21.1699 100.303 21.1609C100.312 21.1518 100.323 21.1451 100.336 21.141C100.348 21.1368 100.361 21.1357 100.373 21.1376H101.606C101.618 21.1357 101.631 21.1368 101.643 21.141C101.656 21.1449 101.667 21.1518 101.676 21.1607C101.685 21.1699 101.692 21.1809 101.695 21.193C101.7 21.2051 101.701 21.218 101.699 21.2307V23.6713C101.699 23.8435 101.706 24.0107 101.719 24.1728C101.732 24.3245 101.756 24.4748 101.792 24.6226C101.823 24.7323 101.876 24.8343 101.947 24.9226C102.023 25.0101 102.119 25.0776 102.227 25.119C102.357 25.1705 102.492 25.2052 102.631 25.2226C102.989 25.25 103.349 25.25 103.708 25.2226C103.846 25.2052 103.982 25.1705 104.112 25.119C104.221 25.0812 104.318 25.0131 104.391 24.9226C104.457 24.8321 104.506 24.7306 104.536 24.6226C104.574 24.4806 104.596 24.3351 104.604 24.1885C104.614 24.0228 104.619 23.8504 104.619 23.6715V21.2307C104.617 21.218 104.618 21.2051 104.623 21.193C104.627 21.1809 104.633 21.1697 104.643 21.1607C104.652 21.1518 104.663 21.1449 104.675 21.141C104.687 21.1368 104.7 21.1357 104.713 21.1376H105.945Z" fill="#C2C2C2"/>
    <path d="M111.4 21.1376C111.412 21.1358 111.425 21.1369 111.437 21.141C111.45 21.1449 111.461 21.1518 111.47 21.1609C111.479 21.1699 111.486 21.1809 111.49 21.1932C111.494 21.2053 111.495 21.2182 111.493 21.2309V22.1743C111.495 22.187 111.494 22.1999 111.49 22.212C111.486 22.2242 111.479 22.2352 111.47 22.2443C111.461 22.2534 111.45 22.2602 111.437 22.2643C111.425 22.2684 111.412 22.2695 111.4 22.2676H109.329C109.16 22.2635 108.991 22.2809 108.827 22.3195C108.718 22.3443 108.617 22.3939 108.531 22.4646C108.463 22.5253 108.415 22.6046 108.392 22.6926C108.366 22.7909 108.354 22.8921 108.355 22.9934V26.228C108.357 26.2407 108.356 26.2535 108.352 26.2659C108.348 26.278 108.341 26.289 108.332 26.2979C108.323 26.3071 108.312 26.3138 108.3 26.3179C108.288 26.322 108.275 26.3231 108.262 26.3214H107.03C107.017 26.3231 107.004 26.322 106.992 26.3179C106.98 26.3138 106.969 26.3071 106.96 26.2979C106.951 26.289 106.944 26.278 106.94 26.2659C106.936 26.2535 106.935 26.2407 106.937 26.228V22.8482C106.92 22.6061 106.962 22.3635 107.058 22.1408C107.155 21.918 107.303 21.7216 107.49 21.5678C108.007 21.2406 108.616 21.0897 109.225 21.1376H111.4Z" fill="#C2C2C2"/>
    <path d="M116.616 21.1368C116.856 21.1352 117.093 21.182 117.314 21.2745C117.534 21.3672 117.734 21.5036 117.901 21.6758C118.06 21.8432 118.188 22.0381 118.279 22.2512C118.371 22.4657 118.419 22.6969 118.418 22.9304V23.8116C118.411 23.9452 118.354 24.0711 118.258 24.1642C118.208 24.2207 118.147 24.2659 118.078 24.2963C118.009 24.3267 117.934 24.3416 117.859 24.3403H113.831V24.5373C113.832 24.6991 113.887 24.856 113.986 24.9832C114.035 25.05 114.099 25.1039 114.173 25.1399C114.247 25.1761 114.329 25.1935 114.411 25.1905H118.046C118.108 25.1905 118.139 25.2183 118.139 25.2735V26.2272C118.141 26.2399 118.139 26.2528 118.135 26.2649C118.131 26.2772 118.125 26.2882 118.116 26.2972C118.107 26.3063 118.096 26.313 118.083 26.3171C118.071 26.3212 118.058 26.3223 118.046 26.3205H114.224C113.975 26.3235 113.728 26.2666 113.505 26.1548C113.292 26.0477 113.102 25.8998 112.946 25.7192C112.79 25.5384 112.664 25.3337 112.573 25.1129C112.481 24.8936 112.427 24.6606 112.412 24.4233C112.405 24.3267 112.4 24.2177 112.397 24.0967C112.393 23.9759 112.392 23.8532 112.392 23.7286C112.392 23.6043 112.393 23.4834 112.397 23.3657C112.4 23.2485 112.405 23.1379 112.412 23.0342C112.42 22.7954 112.471 22.5599 112.562 22.3394C112.653 22.1155 112.781 21.9088 112.94 21.7277C113.099 21.5486 113.29 21.4025 113.505 21.2975C113.729 21.1889 113.976 21.1338 114.224 21.1368H116.616ZM116.834 23.2101C116.855 23.2097 116.877 23.2049 116.896 23.1959C116.916 23.1872 116.933 23.1743 116.948 23.1582C116.965 23.1422 116.978 23.1228 116.987 23.1015C116.996 23.0801 117 23.0571 117 23.034V22.8577C117.016 22.7793 117.013 22.6982 116.991 22.6213C116.969 22.5444 116.929 22.4739 116.875 22.4159C116.819 22.3579 116.751 22.314 116.676 22.2881C116.6 22.262 116.52 22.2547 116.441 22.2668H114.411C114.332 22.2627 114.253 22.276 114.18 22.3055C114.106 22.3349 114.041 22.3803 113.987 22.4379C113.883 22.5525 113.827 22.7028 113.831 22.8577V23.2101H116.834Z" fill="#C2C2C2"/>
    <path d="M12.9204 23.2539H0.424561V23.6964H12.9204V23.2539Z" fill="#C2C2C2"/>
    <path d="M86.9083 19.0631L81.3236 19.0527L81.3191 26.2066C81.3191 26.2825 81.3465 26.3205 81.4019 26.3205H82.8205C82.8827 26.3205 82.9136 26.2825 82.9136 26.2066V23.3139H86.7115C86.8012 23.3139 86.8462 23.2829 86.8462 23.2204V22.1529C86.8462 22.0975 86.8012 22.0697 86.7115 22.0697L82.8961 22.0813V20.3011L86.9083 20.3074C86.921 20.3091 86.9339 20.308 86.946 20.3039C86.9581 20.3 86.9691 20.2931 86.9783 20.2841C86.9872 20.275 86.9941 20.264 86.9981 20.2518C87.0022 20.2397 87.0033 20.2267 87.0016 20.214V19.1565C87.0033 19.1438 87.0022 19.1309 86.9981 19.1187C86.9941 19.1066 86.9872 19.0955 86.9783 19.0865C86.9691 19.0774 86.9581 19.0706 86.946 19.0665C86.9339 19.0625 86.921 19.0613 86.9083 19.0631Z" fill="#C2C2C2"/>
    <path d="M134.309 23.2539H121.813V23.6964H134.309V23.2539Z" fill="#C2C2C2"/>
</svg>
