<svg xmlns="http://www.w3.org/2000/svg" width="95" height="23" viewBox="0 0 95 23" fill="none">
    <path   d="M54.7326 20.0498C54.7326 20.2285 54.7889 20.3332 54.8936 20.3332C54.9762 20.3217 55.0545 20.2889 55.1207 20.2382L84.5242 1.15764C84.9992 0.825565 85.5647 0.647363 86.1443 0.647131H92.6827C93.6747 0.647131 94.3431 1.30741 94.3431 2.29784V14.6371C94.3431 16.1267 94.0129 16.9948 92.6924 17.7871L84.8543 22.5041C84.7757 22.5573 84.6848 22.5894 84.5902 22.5975C84.4952 22.5975 84.4002 22.5218 84.4002 22.2496V7.85548C84.4002 7.68477 84.3535 7.57204 84.2391 7.57204C84.1559 7.58109 84.077 7.6141 84.0121 7.66706L62.5239 21.628C62.0382 21.9591 61.4626 22.1334 60.8748 22.1272H46.6288C45.6287 22.1272 44.9684 21.467 44.9684 20.4685V2.68595C44.9684 2.5539 44.9121 2.4315 44.7993 2.4315C44.7165 2.44128 44.638 2.47359 44.5723 2.52491L30.4004 11.0313C30.2586 11.1247 30.2216 11.1923 30.2216 11.2567C30.2216 11.3212 30.249 11.3711 30.344 11.4742L40.4753 21.5958C40.6074 21.7279 40.7024 21.8325 40.7024 21.9453C40.7024 22.058 40.551 22.116 40.3722 22.116H31.2152C30.497 22.116 29.9414 22.0113 29.5549 21.6328L23.4126 15.497C23.3897 15.4689 23.361 15.4459 23.3285 15.4295C23.2961 15.4131 23.2605 15.4038 23.2242 15.402C23.1578 15.4054 23.0932 15.4247 23.0358 15.4584L12.7724 21.628C12.283 21.9584 11.7024 22.1273 11.1121 22.1111H1.67164C0.663503 22.1208 0 21.4509 0 20.4604V8.35633C0 6.85701 0.330141 5.99864 1.66037 5.2063L9.54672 0.465151C9.60851 0.426022 9.67974 0.404321 9.75285 0.402344C9.87686 0.402344 9.94289 0.524738 9.94289 0.798513V17.006C9.94289 17.1671 9.97993 17.2508 10.1039 17.2508C10.1889 17.2379 10.2698 17.2059 10.3407 17.1574L36.979 1.12865C37.4962 0.782545 38.1114 0.613059 38.7328 0.645521H53.0658C54.0562 0.645521 54.7261 1.3058 54.7261 2.29623L54.7165 20.0594L54.7326 20.0498Z" fill="#C2C2C2"/>
</svg>
