<svg xmlns="http://www.w3.org/2000/svg" width="96" height="23" viewBox="0 0 96 23" fill="none">
    <path   d="M55.6723 20.0498C55.6723 20.2285 55.7286 20.3332 55.8333 20.3332C55.9159 20.3217 55.9942 20.2889 56.0604 20.2382L85.4639 1.15764C85.9389 0.825565 86.5044 0.647363 87.084 0.647131H93.6224C94.6144 0.647131 95.2828 1.30741 95.2828 2.29784V14.6371C95.2828 16.1267 94.9526 16.9948 93.6321 17.7871L85.794 22.5041C85.7154 22.5573 85.6245 22.5894 85.5299 22.5975C85.4349 22.5975 85.3399 22.5218 85.3399 22.2496V7.85548C85.3399 7.68477 85.2932 7.57204 85.1788 7.57204C85.0956 7.58109 85.0167 7.6141 84.9518 7.66706L63.4636 21.628C62.9779 21.9591 62.4023 22.1334 61.8145 22.1272H47.5685C46.5684 22.1272 45.9081 21.467 45.9081 20.4685V2.68595C45.9081 2.5539 45.8518 2.4315 45.739 2.4315C45.6562 2.44128 45.5777 2.47359 45.512 2.52491L31.3401 11.0313C31.1983 11.1247 31.1613 11.1923 31.1613 11.2567C31.1613 11.3212 31.1887 11.3711 31.2837 11.4742L41.415 21.5958C41.5471 21.7279 41.6421 21.8325 41.6421 21.9453C41.6421 22.058 41.4907 22.116 41.3119 22.116H32.1549C31.4367 22.116 30.8811 22.0113 30.4946 21.6328L24.3523 15.497C24.3294 15.4689 24.3007 15.4459 24.2682 15.4295C24.2358 15.4131 24.2002 15.4038 24.1639 15.402C24.0975 15.4054 24.0329 15.4247 23.9755 15.4584L13.7121 21.628C13.2227 21.9584 12.6421 22.1273 12.0518 22.1111H2.61134C1.6032 22.1208 0.939697 21.4509 0.939697 20.4604V8.35633C0.939697 6.85701 1.26984 5.99864 2.60007 5.2063L10.4864 0.465151C10.5482 0.426022 10.6194 0.404321 10.6926 0.402344C10.8166 0.402344 10.8826 0.524738 10.8826 0.798513V17.006C10.8826 17.1671 10.9196 17.2508 11.0436 17.2508C11.1286 17.2379 11.2095 17.2059 11.2804 17.1574L37.9187 1.12865C38.4359 0.782545 39.0511 0.613059 39.6725 0.645521H54.0055C54.9959 0.645521 55.6658 1.3058 55.6658 2.29623L55.6562 20.0594L55.6723 20.0498Z" fill="white"/>
</svg>
