<svg xmlns="http://www.w3.org/2000/svg" width="256" height="31" viewBox="0 0 256 31" fill="none">
    <path d="M8.75 2.58301C4.46979 2.58301 1 6.0528 1 10.333V20.6663C1 24.9466 4.46979 28.4163 8.75 28.4163H19.0833C23.3635 28.4163 26.8333 24.9466 26.8333 20.6663V10.333C26.8333 6.0528 23.3635 2.58301 19.0833 2.58301H8.75Z" stroke="white" stroke-width="1.5"/>
    <path d="M242.541 12.0125V15.7583H245.9C246.158 15.7583 246.287 16.0167 246.287 16.275L245.771 18.7292C245.771 18.8583 245.512 18.9875 245.383 18.9875H242.541V28.4167H238.666V19.1167H236.471C236.212 19.1167 236.083 18.9875 236.083 18.7292V16.275C236.083 16.0167 236.212 15.8875 236.471 15.8875H238.666V11.625C238.666 9.42917 240.346 7.75 242.541 7.75H246.029C246.287 7.75 246.416 7.87917 246.416 8.1375V11.2375C246.416 11.4958 246.287 11.625 246.029 11.625H242.929C242.671 11.625 242.541 11.7542 242.541 12.0125Z" stroke="white" stroke-width="1.5" stroke-miterlimit="10" stroke-linecap="round"/>
    <path d="M243.833 28.4163H236.083C229.625 28.4163 227.042 25.833 227.042 19.3747V11.6247C227.042 5.16634 229.625 2.58301 236.083 2.58301H243.833C250.292 2.58301 252.875 5.16634 252.875 11.6247V19.3747C252.875 25.833 250.292 28.4163 243.833 28.4163Z" stroke="white" stroke-width="1.5" stroke-linecap="round" stroke-linejoin="round"/>
    <path d="M136.625 25.8337H123.709C119.834 25.8337 117.25 23.2503 117.25 19.3753V11.6253C117.25 7.75033 119.834 5.16699 123.709 5.16699H136.625C140.5 5.16699 143.084 7.75033 143.084 11.6253V19.3753C143.084 23.2503 140.5 25.8337 136.625 25.8337Z" stroke="white" stroke-width="1.5" stroke-miterlimit="10" stroke-linecap="round" stroke-linejoin="round"/>
    <path d="M129.392 12.2703L132.621 14.2078C133.784 14.9828 133.784 16.1453 132.621 16.9203L129.392 18.8578C128.1 19.6328 127.067 18.987 127.067 17.5661V13.6911C127.067 12.012 128.1 11.4953 129.392 12.2703Z" stroke="white" stroke-width="1.5" stroke-miterlimit="10" stroke-linecap="round" stroke-linejoin="round"/>
    <path d="M64.1624 26.608C66.0999 27.7705 68.4249 28.4163 70.7499 28.4163C77.8541 28.4163 83.6666 22.6038 83.6666 15.4997C83.6666 8.39551 77.8541 2.58301 70.7499 2.58301C63.6458 2.58301 57.8333 8.39551 57.8333 15.4997C57.8333 17.8247 58.4791 20.0205 59.5124 21.958L58.2737 26.7223C58.079 27.4713 58.7722 28.1481 59.5162 27.9355L64.1624 26.608Z" stroke="white" stroke-width="1.5" stroke-miterlimit="10" stroke-linecap="round" stroke-linejoin="round"/>
    <path d="M76.5625 19.1793C76.5625 19.3886 76.5159 19.6036 76.417 19.8129C76.318 20.0221 76.1899 20.2198 76.0211 20.4058C75.7359 20.7196 75.4215 20.9463 75.0664 21.0916C74.7172 21.2369 74.3388 21.3125 73.9313 21.3125C73.3375 21.3125 72.703 21.173 72.0336 20.8882C71.3641 20.6034 70.6947 20.2198 70.0311 19.7373C69.3616 19.2491 68.7271 18.7085 68.1217 18.1098C67.5221 17.5053 66.9808 16.8718 66.4976 16.2091C66.0202 15.5465 65.636 14.8839 65.3566 14.2271C65.0772 13.5644 64.9375 12.9309 64.9375 12.3264C64.9375 11.9311 65.0074 11.5533 65.1471 11.2046C65.2868 10.85 65.508 10.5245 65.8165 10.2339C66.1891 9.86769 66.5966 9.6875 67.0273 9.6875C67.1903 9.6875 67.3533 9.72238 67.4988 9.79213C67.6502 9.86188 67.7841 9.9665 67.8889 10.1176L69.2394 12.0183C69.3442 12.1636 69.4198 12.2973 69.4722 12.4252C69.5246 12.5473 69.5537 12.6693 69.5537 12.7798C69.5537 12.9193 69.513 13.0587 69.4315 13.1924C69.3558 13.3261 69.2452 13.4656 69.1055 13.6051L68.6631 14.0643C68.5991 14.1282 68.5699 14.2038 68.5699 14.2968C68.5699 14.3433 68.5758 14.384 68.5874 14.4305C68.6049 14.477 68.6223 14.5119 68.634 14.5467C68.7388 14.7386 68.9192 14.9885 69.1754 15.2908C69.4373 15.593 69.7167 15.9011 70.0194 16.2091C70.3338 16.5172 70.6365 16.802 70.945 17.0636C71.2477 17.3193 71.498 17.4937 71.696 17.5983C71.7251 17.6099 71.76 17.6274 71.8007 17.6448C71.8473 17.6622 71.8939 17.6681 71.9463 17.6681C72.0452 17.6681 72.1209 17.6332 72.1849 17.5693L72.6273 17.1333C72.7729 16.988 72.9126 16.8776 73.0465 16.8078C73.1804 16.7264 73.3143 16.6858 73.4598 16.6858C73.5704 16.6858 73.6868 16.709 73.8149 16.7613C73.9429 16.8136 74.0768 16.8892 74.2224 16.988L76.1492 18.3539C76.3005 18.4586 76.4053 18.5806 76.4694 18.7259C76.5276 18.8712 76.5625 19.0166 76.5625 19.1793Z" stroke="white" stroke-width="1.5" stroke-miterlimit="10"/>
    <path d="M190.228 2.58301H185.896V20.1796C185.896 22.2763 184.229 23.9985 182.156 23.9985C180.082 23.9985 178.416 22.2763 178.416 20.1796C178.416 18.1205 180.045 16.4356 182.045 16.3608V11.9429C177.638 12.0178 174.083 15.6494 174.083 20.1796C174.083 24.7473 177.712 28.4163 182.193 28.4163C186.673 28.4163 190.302 24.7098 190.302 20.1796V11.1567C191.931 12.3548 193.931 13.0661 196.042 13.1036V8.68567C192.783 8.57335 190.228 5.87769 190.228 2.58301Z" stroke="white" stroke-width="1.5"/>
</svg>
