<svg xmlns="http://www.w3.org/2000/svg" width="20" height="21" viewBox="0 0 20 21" fill="none">
    <path d="M14.6094 12.375L12.5 11.4766C12.2266 11.3594 11.9531 11.4375 11.7969 11.6328L10.9375 12.6875C9.5703 12.0234 8.4766 10.9297 7.8125 9.5625L8.8672 8.7031C9.0625 8.5078 9.1406 8.2344 9.0234 7.96094L8.125 5.89062C8.0078 5.61719 7.69531 5.46094 7.42188 5.53906L5.46875 5.96875C5.15625 6.04688 4.96094 6.28125 4.96094 6.59375C4.96094 11.5156 8.9453 15.5 13.8672 15.5C14.1797 15.5 14.4141 15.3438 14.4922 15.0312L14.9219 13.0781C15.0391 12.8047 14.8828 12.4922 14.6094 12.375ZM10 0.5C4.45312 0.5 0 4.99219 0 10.5C0 16.0469 4.45312 20.5 10 20.5C15.5078 20.5 20 16.0469 20 10.5C20 4.99219 15.5078 0.5 10 0.5ZM10 18.625C5.50781 18.625 1.875 14.9922 1.875 10.5C1.875 6.04688 5.50781 2.375 10 2.375C14.4531 2.375 18.125 6.04688 18.125 10.5C18.125 14.9922 14.4531 18.625 10 18.625Z" fill="white"/>
</svg>
