<svg xmlns="http://www.w3.org/2000/svg" width="18" height="18" viewBox="0 0 18 18" fill="none">
    <path d="M17.8643 10.8535C17.4897 12.6828 16.5585 14.3515 15.1984 15.6309C13.8382 16.9103 12.1156 17.7378 10.2667 18V16.1686C11.6323 15.9251 12.8992 15.2947 13.917 14.3524C14.9348 13.41 15.6607 12.1953 16.0083 10.8526L17.8643 10.8535ZM1.99256 10.8535C2.33646 12.1807 3.04996 13.3831 4.05015 14.3209C5.05034 15.2587 6.29616 15.8935 7.64283 16.1514V17.9873C5.81209 17.7084 4.11092 16.8749 2.76871 15.5991C1.42651 14.3234 0.507836 12.6667 0.136576 10.8526H1.99256V10.8535ZM14.4273 8.13948V9.94825H11.7139C11.2575 9.9481 10.8179 10.1205 10.4833 10.4307C10.1487 10.741 9.94368 11.1663 9.90945 11.6214L9.90493 11.757V14.4702H8.09597V11.757C8.09612 11.3007 7.92376 10.8612 7.61344 10.5266C7.30312 10.192 6.87778 9.987 6.42269 9.95277L6.28702 9.94825H3.57359V8.13948H14.4273ZM9.00045 0C13.6902 0 17.5469 3.56961 18 8.13948H16.1802C15.9595 6.3912 15.1083 4.78355 13.7864 3.61816C12.4645 2.45277 10.7628 1.80975 9.00045 1.80975C7.23813 1.80975 5.53637 2.45277 4.21448 3.61816C2.89259 4.78355 2.04143 6.3912 1.82071 8.13948H0C0.454048 3.56961 4.31074 0 9.00045 0Z" fill="white"/>
</svg>
