<svg xmlns="http://www.w3.org/2000/svg" width="44" height="44" viewBox="0 0 44 44" fill="none">
    <path opacity="0.9" d="M42.6732 32.2483C39.8023 33.7112 36.6099 33.1157 33.8344 30.3372C40.537 31.6056 44.0043 25.7586 42.192 20.8719C37.2192 29.3373 24.4499 26.2069 23.3594 16.406C23.0226 13.2901 24.2419 10.1098 26.5191 8.40344C27.7867 7.4687 29.3437 7.01329 30.9144 7.11788C33.5456 7.29514 35.9199 9.15809 35.791 12.0011C35.6793 14.2668 33.562 15.7124 31.4601 14.6686C30.5295 14.2031 29.8558 13.2712 29.9683 11.9383C27.7384 14.0586 28.0272 17.3516 30.398 19.1664C32.5961 20.8375 36.0291 20.6929 38.4351 19.3273C44.354 15.9215 43.9209 6.15499 37.8413 2.13911C28.938 -3.73973 16.6345 3.24741 18.1099 14.605C13.4103 9.89811 14.4363 2.87826 19.6661 0.548931C15.4151 -1.20216 10.4105 1.30358 10.603 7.10325C9.59585 2.95055 5.82606 -0.456976 0.0669754 0.0730827C-0.462359 5.83833 2.93879 9.615 7.09268 10.6269C1.3018 10.4368 -1.2005 15.4457 0.548189 19.687C2.87434 14.4501 9.88458 13.4218 14.5841 18.1287C3.24298 16.6667 -3.73375 28.9716 2.13619 37.8862C6.14658 43.9897 15.8997 44.4259 19.3009 38.48C20.6801 36.0706 20.809 32.633 19.1402 30.4327C17.3279 28.0389 14.0393 27.7652 11.922 30.0025C13.2531 29.8898 14.1992 30.5644 14.6486 31.4963C15.6909 33.6002 14.2473 35.7204 11.9847 35.8331C9.1619 35.9777 7.28431 33.5959 7.10815 30.9499C6.99933 29.3765 7.45454 27.8159 8.39196 26.5485C10.0917 24.2673 13.2685 23.0463 16.3835 23.3836C26.1822 24.4739 29.2946 37.2598 20.8425 42.2403C25.7191 44.0551 31.5744 40.5856 30.2949 33.8712C33.0704 36.6497 33.6642 39.8628 32.2043 42.7222C37.6592 40.9479 41.3602 42.5725 44 44C42.8305 40.9367 40.4433 39.1236 42.6732 32.2483Z" fill="white"/>
</svg>
