<svg xmlns="http://www.w3.org/2000/svg" width="126" height="46" viewBox="0 0 126 46" fill="none">
    <g clip-path="url(#clip0_2262_167)">
        <path d="M38.7332 0.71875H47.211V44.1587H38.7158V0.71875H38.7332Z" fill="white"/>
        <path d="M52.9729 0.71875H61.4681V44.1586H52.9729V0.71875Z" fill="white"/>
        <path d="M85.4218 13.1328H93.917V31.3174C93.917 40.3118 88.2071 45.2807 81.0524 45.2807H79.4681C72.3134 45.2807 66.6035 40.3118 66.6035 31.3174V13.1328H75.0987V31.6914C75.0987 35.1644 77.3445 37.2127 80.0079 37.2127H80.4952C83.1586 37.2127 85.4044 35.1644 85.4044 31.6914V13.1328H85.4218Z" fill="white"/>
        <path d="M98.408 44.1598V25.9752C98.408 16.8562 104.414 12.0117 111.569 12.0117H112.543C120.012 12.0117 126 17.6042 126 26.278V27.0259L117.574 27.4001L117.522 26.1533C117.348 21.8787 114.911 20.1334 112.3 20.1334H112.056C109.393 20.1334 106.903 22.0035 106.903 26.0287V44.1419H98.408V44.1598Z" fill="white"/>
        <path d="M16.7118 37.1047C12.1161 37.1047 8.5474 33.5248 8.5474 28.6982C8.5474 23.8715 12.1161 20.2915 16.7118 20.2915C21.5512 20.2915 25.1722 23.818 25.1722 28.6982C25.1722 33.7207 21.5512 37.1047 16.7118 37.1047ZM15.8588 44.9058C24.4933 44.9058 29.3326 39.7764 29.6287 32.7234C29.8027 29.5709 33.2495 30.9244 33.2495 28.6982C33.2495 19.3654 25.8163 12.3125 16.6248 12.3125C7.38104 12.3125 0 19.3654 0 28.6982C0.0348162 38.1022 7.17214 44.9058 15.8588 44.9058ZM26.2515 44.1577H33.267V28.6448H25.6595L26.2515 44.1577Z" fill="white"/>
    </g>
    <defs>
        <clipPath id="clip0_2262_167">
            <rect width="126" height="46" fill="white"/>
        </clipPath>
    </defs>
</svg>
