<svg xmlns="http://www.w3.org/2000/svg" width="19" height="14" viewBox="0 0 19 14" fill="none">
    <path  d="M16.4091 0C17.84 0 19 1.17526 19 2.625V11.375C19 12.8248 17.84 14 16.4091 14H2.59091C1.15999 14 0 12.8248 0 11.375V2.625C0 1.17526 1.15999 0 2.59091 0H16.4091ZM15.7639 1.75H3.2362L8.96489 6.33211C9.27865 6.58315 9.72135 6.58315 10.0352 6.33211L15.7639 1.75ZM1.72727 2.7727V11.375C1.72727 11.8583 2.11394 12.25 2.59091 12.25H16.4091C16.8861 12.25 17.2727 11.8583 17.2727 11.375V2.77272L11.1054 7.70569C10.1641 8.45863 8.83586 8.45863 7.89459 7.70569L1.72727 2.7727Z" fill="white"/>
</svg>
