<svg xmlns="http://www.w3.org/2000/svg" width="17" height="17" viewBox="0 0 17 17" fill="none">
    <path d="M7.26977 0V1.62913C9.34203 1.62913 11.4151 2.427 13.0008 4.02151C14.5864 5.61602 15.3799 7.70058 15.3799 9.78438H17C17 7.27694 16.0529 4.76884 14.1552 2.86059C12.2576 0.952346 9.76334 0 7.26977 0ZM1.73492 1.89691L0 4.3887C0.273097 6.27564 2.10612 9.23726 4.9002 12.0469C7.81314 14.976 10.8916 16.8545 12.7504 17L15.1056 15.342L11.7506 11.9683L11.1733 12.5488C10.3454 13.3813 7.97238 12.7903 6.1376 10.9453C4.30282 9.1003 3.72142 6.72051 4.54939 5.88795L5.12663 5.30749L1.73492 1.89691ZM7.26977 3.22137V4.8521C8.52172 4.8521 9.7733 5.33637 10.7332 6.30164C11.6932 7.26691 12.1747 8.52546 12.1747 9.78438H13.7965C13.7965 8.1018 13.1596 6.41974 11.8877 5.14073C10.6158 3.86172 8.94303 3.22137 7.26977 3.22137Z" fill="white"/>
</svg>
