<svg xmlns="http://www.w3.org/2000/svg" width="26" height="28" viewBox="0 0 26 28" fill="none">
    <path d="M1 6.2L5 1H21L25 6.2M1 6.2V24.4C1 25.0895 1.28095 25.7508 1.78105 26.2385C2.28115 26.7261 2.95943 27 3.66667 27H22.3333C23.0405 27 23.7188 26.7261 24.2189 26.2385C24.7191 25.7508 25 25.0895 25 24.4V6.2M1 6.2H25M18.3333 11.4C18.3333 12.7792 17.7715 14.1018 16.7712 15.0769C15.7711 16.0522 14.4145 16.6 13 16.6C11.5855 16.6 10.229 16.0522 9.22876 15.0769C8.22857 14.1018 7.66667 12.7792 7.66667 11.4" stroke="white" stroke-width="2" stroke-linecap="round" stroke-linejoin="round"/>
</svg>
